<svg width="115" height="38" viewBox="0 0 115 38" fill="none" xmlns="http://www.w3.org/2000/svg">
<g filter="url(#filter0_d_0_1757)">
<path fill-rule="evenodd" clip-rule="evenodd" d="M5.14622 7.33102C5.89241 4.33158 8.25507 1.9437 10.4042 1.0974C11.3031 0.743358 13.2078 1.4207 13.2213 2.06631C13.2676 4.29993 13.2572 7.79111 13.2515 9.71074C13.2504 10.0532 13.2496 10.3456 13.2492 10.572C13.2489 10.7245 13.2487 10.8877 13.2485 11.0597C13.2463 12.7276 13.243 15.229 13.1829 16.8618C13.128 18.356 12.8224 19.732 11.9493 20.8776C11.2211 21.8329 9.96326 22.4257 9.66863 22.1765C9.48768 22.0235 9.59508 21.7029 9.7502 21.2398C9.82097 21.0285 9.90167 20.7876 9.96944 20.5195C10.1831 19.6748 10.3021 18.82 10.3021 16.1132C10.3021 14.9572 10.323 11.2688 10.3407 8.15448C10.3536 5.87923 10.3648 3.91046 10.3648 3.4597C10.3648 3.43327 10.3648 3.40739 10.3649 3.38206C10.3654 2.83512 10.3657 2.55006 10.0843 2.77172C8.49932 4.02007 7.24005 6.86517 7.52849 9.41138C7.64931 10.4784 8.02237 11.0292 8.27904 11.4082C8.4966 11.7294 8.63054 11.9271 8.45638 12.2111C8.13383 12.7373 4.20119 11.1304 5.14622 7.33102ZM108.956 16.1281C109.074 15.6197 109.216 15.3175 109.528 15.3175C109.93 15.3175 110.063 15.7942 109.973 16.4114C109.597 18.9762 108.483 19.9509 107.119 19.9509C106.481 19.9509 104.648 19.6585 104.015 17.0455C103.548 15.1167 103.663 11.5899 103.714 10.5117C103.715 10.4825 103.674 10.3321 103.584 10.5228L103.564 10.5643C103.306 11.1128 102.655 12.4948 102.261 14.0203C101.641 16.4179 101.588 18.0864 101.618 18.3564C101.681 18.9103 100.98 18.9973 100.644 18.9973C100.117 18.9973 99.4702 18.9561 98.9462 18.0857C98.7626 17.7814 98.5236 16.8196 98.3448 15.1926C98.1107 13.0662 98.0741 11.4625 98.06 10.8432L98.0584 10.773C98.0521 10.4959 97.8764 10.5391 97.7207 10.8009L97.6971 10.8404C97.4103 11.3211 96.8389 12.2789 96.2274 14.6459C95.9382 15.7658 95.8956 17.1845 95.8619 18.3074L95.8619 18.3084C95.852 18.6392 95.8428 18.9443 95.8283 19.2085C95.8041 19.6507 95.627 19.822 95.3999 19.8652C95.0721 19.9275 94.1859 20.0707 93.317 19.7679C93.1207 19.6994 92.8508 19.5577 92.8045 19.4447C92.7285 19.2601 92.6804 18.6745 92.6498 17.9583C91.9185 19.5849 91.0171 19.9509 90.0673 19.9509C89.1555 19.9509 87.5636 19.3565 87.2358 17.4323C87.2358 17.4323 87.0401 17.8157 86.6953 18.2593C85.1676 20.2254 82.1579 20.7275 80.601 18.4087C80.5251 18.2957 80.4557 18.1734 80.3892 18.047C79.8378 19.1809 78.8088 19.9445 77.7332 19.9445C76.8143 19.9445 75.2645 19.359 74.577 17.5393C73.5869 14.9191 74.6421 11.0046 74.7356 10.6578L74.739 10.6449C74.7937 10.4414 74.7088 10.3848 74.4135 10.4029C73.4902 10.4597 72.6251 10.4527 72.6251 10.4527C72.1152 11.9644 71.1194 13.9069 70.1903 15.3533C69.3377 16.6804 68.4118 17.8144 67.5899 18.7116C67.6003 19.3864 67.6124 20.0351 67.6234 20.628C67.6315 21.0617 67.639 21.4655 67.6449 21.8278C67.6799 23.969 67.2027 26.1369 66.4736 27.1442C65.6453 28.2885 64.2955 29.1062 62.7222 28.9888C61.2379 28.8781 59.2791 28.0338 59.4456 25.7621C59.5762 23.9829 61.35 22.4547 63.6865 20.4417L63.6962 20.4334C64.2275 19.9755 65.093 19.2292 65.093 19.2292L65.0484 18.008C64.9942 18.0832 64.9321 18.167 64.8605 18.2593C63.3434 20.2284 60.3231 20.7275 58.7662 18.4087C58.663 18.255 58.5684 18.0929 58.4818 17.9231C57.7427 19.4872 56.6881 19.9411 55.6667 19.9411C54.7547 19.9411 53.162 19.2915 52.9407 17.4323C52.9407 17.4323 52.8693 17.6509 52.4002 18.2593C50.8831 20.2284 47.8628 20.7275 46.3059 18.4087C45.9809 17.9246 45.7292 17.3522 45.5592 16.694C44.9669 18.3087 43.6125 19.9499 42.2617 19.9499C40.2412 19.9499 39.0783 18.2754 38.805 15.3159C37.2785 18.7426 35.0857 20.0711 32.3484 19.985C31.6459 19.9629 30.5442 19.7685 30.0317 19.554C29.4364 19.3048 28.8622 19.0199 29.0199 18.481C29.1819 17.9271 29.4658 17.4797 29.9621 17.1279C30.1531 16.9925 30.4718 17.0312 30.6805 17.1603C30.8489 17.2645 30.9752 17.3545 31.0958 17.4404L31.0959 17.4405L31.096 17.4406L31.0961 17.4406L31.0961 17.4406C31.2537 17.5528 31.4014 17.6581 31.6202 17.7789C32.9458 18.5099 33.6906 17.7578 33.8883 17.0279C34.1469 16.0733 33.7572 15.067 32.5702 14.0081C32.25 13.7224 31.9297 13.4482 31.623 13.1857L31.6228 13.1855L31.6224 13.1852C31.4401 13.0291 31.2626 12.8772 31.0928 12.7295C30.4393 13.765 29.5296 15.2017 28.5927 16.6671C27.0899 19.0184 25.688 19.9473 24.6934 19.9473C23.3935 19.9473 22.4838 19.0761 22.6733 14.3757C22.7107 13.4481 22.7576 12.4337 22.7979 11.5611L22.7979 11.5607L22.798 11.5586C22.834 10.78 22.8648 10.1145 22.8789 9.72455C22.8856 9.53748 22.746 9.54429 22.6236 9.65859C21.9241 10.3125 20.4367 12.1538 19.2956 15.9276C18.6718 17.9907 18.5765 18.7686 18.5084 19.325C18.4964 19.4224 18.4853 19.5129 18.4724 19.6024C18.3999 20.1038 17.004 19.9353 16.7492 19.886C16.4754 19.8328 16.3093 19.7041 16.1656 19.5353C16.0219 19.3661 15.9058 19.0819 15.834 18.7325C15.7621 18.3836 15.7432 17.5858 15.7432 16.9017L15.8045 7.90003C15.8045 7.60763 15.9721 7.46093 16.3075 7.46093C17.0116 7.46093 17.8036 7.77045 18.1002 7.9218C18.2751 8.01101 18.3517 8.14143 18.3517 8.27633L18.314 14.03C18.314 14.03 18.7497 12.9312 18.9715 12.3281C20.7311 7.5435 22.5934 7.46093 23.2389 7.46093C23.6701 7.46093 24.4147 7.85784 24.7636 8.05969C25.3378 8.39197 25.6804 8.7588 25.6544 9.40274C25.6355 9.87089 25.6155 10.3352 25.596 10.7878L25.5959 10.791L25.5957 10.7935L25.5957 10.7947C25.5342 12.222 25.4776 13.5328 25.4776 14.4814L25.4776 14.5381V14.5381C25.4775 15.9725 25.4774 17.4823 26.0119 17.4823C26.6514 17.4823 27.4859 16.1224 28.5754 14.3469L28.7724 14.026C29.2 13.3309 29.7047 12.4346 30.0722 11.7689C30.0225 11.715 29.9744 11.6615 29.9301 11.6092C29.3224 10.8928 29.157 10.2034 29.4672 9.27382C29.8675 8.07415 31.2097 6.9504 32.8374 7.30227C33.8226 7.51509 33.8053 8.48002 33.4039 9.32349C32.8374 10.5142 32.1987 11.1058 32.1987 11.1058C33.3016 11.8729 34.2872 12.5728 34.7865 12.9425C36.1418 13.9458 36.8941 15.131 36.5258 16.7093C36.5258 16.7093 38.2409 15.4206 38.7278 13.035C38.7269 12.9009 38.7262 12.7629 38.7262 12.6195C38.7262 11.2713 38.7656 6.90487 38.7656 6.90487C38.4144 6.89498 37.9922 6.88519 37.5629 6.87524L37.5627 6.87523L37.5626 6.87523C36.9106 6.86011 36.2422 6.84461 35.7805 6.82779C35.1149 6.80386 35.6345 4.85757 36.116 4.85757C36.3751 4.85757 36.9471 4.88137 37.519 4.90517C38.0909 4.92897 38.6627 4.95277 38.9217 4.95277C38.9217 4.95277 38.9705 2.46321 39.0647 1.61325C39.1272 1.0532 39.4475 0.919297 40.1534 1.05619C40.6644 1.15521 41.0954 1.24692 41.5772 1.43847L41.5934 1.44489C41.7936 1.5239 42.1203 1.65287 42.0981 1.89718C42.0712 2.19838 41.9558 5.04962 41.9558 5.04962C41.9558 5.04962 43.2425 5.13917 43.7046 5.14897C44.2543 5.15994 45.6408 5.22938 45.837 5.30863C46.2698 5.48374 45.8658 6.89856 45.4464 6.91866C44.8398 6.94783 44.374 6.94849 43.9243 6.94913C43.7541 6.94938 43.5862 6.94961 43.4139 6.95139C43.1702 6.95405 41.9116 6.97415 41.9116 6.97415C41.878 7.38817 41.6794 11.6836 41.6794 14.7007C41.6794 16.9656 42.2345 18.0284 42.8174 18.0284C43.8135 18.0284 45.0312 16.2017 45.3069 14.6166C45.3022 14.0586 45.3389 13.4613 45.4222 12.8237C45.7103 10.617 46.27 9.62022 46.9614 8.72108C48.0217 7.34215 49.4093 7.00605 50.7465 7.3792C51.2429 7.51742 51.9891 7.9944 52.4531 8.67971V8.18546C52.4531 7.97097 52.6933 7.68339 53.0349 7.65963C53.2938 7.64153 53.631 7.67276 54.0216 7.75766C54.3949 7.83906 55.1971 8.05886 55.2037 8.49497C55.2045 8.55514 55.1988 8.70227 55.1906 8.91392L55.1906 8.91432C55.1794 9.20234 55.1636 9.60972 55.1533 10.0799C55.1429 10.5577 55.1289 10.9713 55.1149 11.3847V11.3847V11.3848V11.3849V11.385L55.1149 11.3853C55.0874 12.1975 55.06 13.0094 55.06 14.3073C55.06 17.6652 55.5628 18.3999 56.4465 18.3999C57.1377 18.3999 57.7491 17.3668 57.9617 16.379C57.7646 15.3923 57.7379 14.2214 57.8825 12.8433C58.0377 11.3647 58.5854 9.82107 59.4217 8.72108C60.4742 7.33683 61.8696 7.00605 63.2068 7.3792C63.7032 7.51742 64.4494 7.9944 64.9134 8.67971C64.9134 8.67971 64.9134 8.29411 64.9116 8.23131C64.9028 7.89871 65.2427 7.6176 65.8068 7.6588C66.2538 7.69137 66.6847 7.78474 67.0491 7.91964C67.4613 8.07215 67.6594 8.19277 67.6643 8.51158C67.6652 8.57117 67.6595 8.71288 67.6514 8.91746L67.6514 8.91785C67.6401 9.20153 67.624 9.60598 67.6136 10.0799C67.5952 10.9133 67.5537 13.2247 67.5636 16.1619C67.5643 16.3682 67.5655 16.5757 67.5671 16.783C68.0017 16.2261 68.3384 15.7023 68.7785 14.9954C69.6002 13.6759 70.396 11.8511 70.7207 10.4539C70.7207 10.4539 69.7311 9.91594 69.8914 8.77541C69.9925 8.0567 70.2589 7.65698 70.6502 7.31806C71.3057 6.75037 73.3603 6.60616 73.1394 8.38349C73.0973 8.72241 73.0461 8.91463 73.0461 8.91463C73.8955 8.79634 74.8239 8.64233 75.4732 8.49912C76.3848 8.29826 77.019 8.46158 77.3166 8.78122C77.6411 9.12978 77.7705 9.49345 77.6112 10.1881C77.5446 10.4789 77.4789 10.7538 77.4158 11.0182L77.4153 11.0201L77.4151 11.0208L77.4151 11.0211C77.1247 12.2365 76.887 13.2315 76.8451 14.5488C76.7677 16.989 77.4343 18.3999 78.3539 18.3999C78.9873 18.3999 79.5658 17.881 79.8774 16.6147C79.6195 15.4925 79.5722 14.1656 79.7173 12.8569C79.9157 11.0669 80.42 9.82107 81.2565 8.72108C82.309 7.33683 83.7043 7.00589 85.0415 7.3792C85.538 7.51742 86.2842 7.9944 86.7482 8.67971C86.7482 8.67971 86.7462 8.36837 86.7462 8.2044C86.7462 7.89887 87.0011 7.67691 87.3613 7.65764C87.6158 7.64402 87.9417 7.67592 88.3167 7.75766C88.69 7.8389 89.4922 8.0587 89.4987 8.4948C89.4996 8.55495 89.4939 8.70176 89.4856 8.9129V8.91318V8.91345V8.91374V8.91404V8.9142L89.4856 8.91457L89.4856 8.91578C89.4744 9.2037 89.4586 9.6104 89.4484 10.0797C89.438 10.5578 89.424 10.9716 89.41 11.3853C89.3825 12.1976 89.3551 13.0095 89.3551 14.3073C89.3551 17.6652 89.772 18.3999 90.6557 18.3999C91.5383 18.3999 92.3499 16.6425 92.6002 15.3479C92.5996 15.2061 92.5995 15.0727 92.5995 14.9502C92.5995 12.4512 92.6557 8.99876 92.6684 8.21996L92.6709 8.06002C92.6709 7.71363 92.7817 7.47605 93.2341 7.47605C93.6009 7.47605 94.4648 7.67592 94.9033 7.79537C95.0007 7.82212 95.3237 7.96965 95.3216 8.4124C95.3168 9.58599 95.3115 12.68 95.3115 12.68C95.3115 12.68 95.591 11.9043 95.9922 10.7576C96.4858 9.34675 96.9609 8.15655 97.3711 7.71429C97.8446 7.17352 99.1595 7.62807 99.5925 7.88508C100.26 8.28115 100.388 8.76494 100.392 9.3333C100.411 11.9887 100.555 13.3757 100.638 14.1781C100.646 14.2559 100.654 14.3282 100.66 14.3957C100.672 14.511 100.736 14.5008 100.742 14.4515C100.862 13.499 101.371 11.154 102.673 8.20024C103.132 7.15827 104.053 7.47258 104.69 7.68983L104.696 7.69203C106.176 8.19725 106.328 8.71028 106.298 9.2288C106.155 11.7524 106.137 14.2893 106.249 15.6674C106.392 17.42 106.947 18.2954 107.566 18.2954C108.119 18.2954 108.548 17.8963 108.956 16.1281ZM85.9086 17.0484C86.3199 16.2725 86.6513 15.1725 86.7206 13.7653C86.8611 10.9078 86.2639 9.36237 84.988 9.24973C83.6944 9.13576 82.9133 10.3994 82.6335 12.0726C82.3587 13.715 82.3765 15.6807 82.7588 16.8576C83.4603 19.0167 85.1124 18.5504 85.9086 17.0484ZM65.211 22.4962C65.1937 24.8344 64.8022 26.8845 63.9627 27.4799C62.772 28.3242 61.1716 27.6909 61.503 25.9847C61.7962 24.4748 63.1829 22.9329 65.2144 21.0489C65.2144 21.0489 65.2186 21.4786 65.211 22.4962ZM64.0739 17.0484C64.4595 16.3208 64.813 15.0333 64.8858 13.7515C65.0664 10.5713 64.4346 9.2499 63.1532 9.2499C61.8353 9.2499 61.1015 10.7001 60.7987 12.2633C60.5654 13.4681 60.4525 15.3802 60.924 16.8576C61.6137 19.0199 63.2778 18.5504 64.0739 17.0484ZM52.4255 13.7321C52.3474 15.0894 52.0657 16.2242 51.6135 17.0484C50.7956 18.5401 49.1774 19.0131 48.4637 16.8576C47.9492 15.3033 48.1244 13.184 48.3384 12.0392C48.656 10.3403 49.4513 9.13576 50.6929 9.2499C51.9683 9.36702 52.5883 10.9078 52.4255 13.7321Z" fill="#262626"/>
<path d="M10.4042 1.0974L10.5874 1.56262L10.5875 1.56261L10.4042 1.0974ZM5.14622 7.33102L4.66101 7.21031L4.661 7.21033L5.14622 7.33102ZM13.2213 2.06631L13.7212 2.05593L13.7212 2.0559L13.2213 2.06631ZM13.2515 9.71074L13.7515 9.71223L13.7515 9.71223L13.2515 9.71074ZM13.2492 10.572L13.7492 10.5729L13.7492 10.5728L13.2492 10.572ZM13.2485 11.0597L12.7485 11.0591L12.7485 11.0591L13.2485 11.0597ZM13.1829 16.8618L12.6833 16.8434L12.6833 16.8434L13.1829 16.8618ZM11.9493 20.8776L12.3469 21.1808L12.347 21.1807L11.9493 20.8776ZM9.66863 22.1765L9.99153 21.7948L9.99144 21.7947L9.66863 22.1765ZM9.7502 21.2398L10.2243 21.3986L10.2243 21.3986L9.7502 21.2398ZM9.96944 20.5195L9.48472 20.3968L9.48469 20.3969L9.96944 20.5195ZM10.3407 8.15448L10.8407 8.15732L10.8407 8.15732L10.3407 8.15448ZM10.3649 3.38206L9.86486 3.38154L9.86486 3.38154L10.3649 3.38206ZM10.0843 2.77172L10.3937 3.16452L10.3937 3.16451L10.0843 2.77172ZM7.52849 9.41138L8.02532 9.35512L8.02532 9.3551L7.52849 9.41138ZM8.27904 11.4082L7.86505 11.6885L7.86505 11.6885L8.27904 11.4082ZM8.45638 12.2111L8.03015 11.9497L8.0301 11.9498L8.45638 12.2111ZM108.956 16.1281L108.469 16.0153L108.469 16.0156L108.956 16.1281ZM109.973 16.4114L109.478 16.3389L109.478 16.3389L109.973 16.4114ZM104.015 17.0455L103.529 17.1633L103.529 17.1633L104.015 17.0455ZM103.714 10.5117L103.215 10.4876L103.214 10.488L103.714 10.5117ZM103.584 10.5228L103.131 10.3099L103.131 10.3099L103.584 10.5228ZM103.564 10.5643L104.017 10.7774L104.017 10.7773L103.564 10.5643ZM102.261 14.0203L102.745 14.1455L102.745 14.1455L102.261 14.0203ZM101.618 18.3564L102.115 18.3001L102.115 18.3001L101.618 18.3564ZM98.9462 18.0857L99.3746 17.8278L99.3743 17.8274L98.9462 18.0857ZM98.3448 15.1926L98.8418 15.138L98.8418 15.1379L98.3448 15.1926ZM98.06 10.8432L98.5599 10.8319L98.5599 10.8317L98.06 10.8432ZM98.0584 10.773L97.5586 10.7845L97.5586 10.7846L98.0584 10.773ZM97.7207 10.8009L98.1501 11.057L98.1504 11.0565L97.7207 10.8009ZM97.6971 10.8404L98.1265 11.0966L98.1266 11.0965L97.6971 10.8404ZM96.2274 14.6459L95.7433 14.5208L95.7433 14.5208L96.2274 14.6459ZM95.8619 18.3074L95.3621 18.2924L95.3621 18.2952L95.8619 18.3074ZM95.8619 18.3084L96.3617 18.3234L96.3617 18.3206L95.8619 18.3084ZM95.8283 19.2085L95.3291 19.1811L95.3291 19.1811L95.8283 19.2085ZM95.3999 19.8652L95.4933 20.3564L95.4933 20.3564L95.3999 19.8652ZM93.317 19.7679L93.1524 20.24L93.1525 20.24L93.317 19.7679ZM92.8045 19.4447L93.2671 19.2551L93.2668 19.2544L92.8045 19.4447ZM92.6498 17.9583L93.1494 17.937L92.1938 17.7533L92.6498 17.9583ZM87.2358 17.4323L87.7287 17.3483L87.4755 15.8624L86.7904 17.2051L87.2358 17.4323ZM86.6953 18.2593L86.3006 17.9525L86.3005 17.9525L86.6953 18.2593ZM80.601 18.4087L80.1858 18.6873L80.1859 18.6874L80.601 18.4087ZM80.3892 18.047L80.8318 17.8144L80.3719 16.9394L79.9396 17.8283L80.3892 18.047ZM74.577 17.5393L75.0447 17.3626L75.0447 17.3626L74.577 17.5393ZM74.7356 10.6578L75.2184 10.7879L75.2184 10.7876L74.7356 10.6578ZM74.739 10.6449L75.2219 10.7748L75.222 10.7745L74.739 10.6449ZM74.4135 10.4029L74.3829 9.90382L74.3828 9.90383L74.4135 10.4029ZM72.6251 10.4527L72.6291 9.95274L72.267 9.94982L72.1513 10.2929L72.6251 10.4527ZM70.1903 15.3533L70.611 15.6235L70.611 15.6235L70.1903 15.3533ZM67.5899 18.7116L67.2212 18.3738L67.0869 18.5204L67.09 18.7193L67.5899 18.7116ZM67.6234 20.628L68.1233 20.6187L68.1233 20.6187L67.6234 20.628ZM67.6449 21.8278L67.145 21.8359L67.145 21.836L67.6449 21.8278ZM66.4736 27.1442L66.8787 27.4373L66.8787 27.4373L66.4736 27.1442ZM62.7222 28.9888L62.7594 28.4902L62.7593 28.4902L62.7222 28.9888ZM59.4456 25.7621L58.9469 25.7255L58.9469 25.7255L59.4456 25.7621ZM63.6865 20.4417L64.0129 20.8205L64.0129 20.8205L63.6865 20.4417ZM63.6962 20.4334L64.0226 20.8122L64.0226 20.8121L63.6962 20.4334ZM65.093 19.2292L65.4195 19.6079L65.6014 19.451L65.5926 19.211L65.093 19.2292ZM65.0484 18.008L65.5481 17.9897L65.495 16.5336L64.6428 17.7156L65.0484 18.008ZM64.8605 18.2593L64.4653 17.9531L64.4645 17.9542L64.8605 18.2593ZM58.7662 18.4087L59.1813 18.13L59.1813 18.1299L58.7662 18.4087ZM58.4818 17.9231L58.9272 17.6959L58.4647 16.789L58.0298 17.7095L58.4818 17.9231ZM52.9407 17.4323L53.4372 17.3732L52.4654 17.2771L52.9407 17.4323ZM52.4002 18.2593L52.0042 17.954L52.0041 17.9542L52.4002 18.2593ZM46.3059 18.4087L45.8908 18.6874L45.8908 18.6874L46.3059 18.4087ZM45.5592 16.694L46.0433 16.5689L45.6421 15.0159L45.0897 16.5218L45.5592 16.694ZM38.805 15.3159L39.3029 15.2699L39.127 13.3644L38.3483 15.1124L38.805 15.3159ZM32.3484 19.985L32.3327 20.4847L32.3327 20.4847L32.3484 19.985ZM30.0317 19.554L29.8386 20.0152L29.8387 20.0153L30.0317 19.554ZM29.0199 18.481L28.54 18.3405L28.54 18.3406L29.0199 18.481ZM29.9621 17.1279L30.2512 17.5359L30.2512 17.5359L29.9621 17.1279ZM30.6805 17.1603L30.9436 16.7352L30.9435 16.7351L30.6805 17.1603ZM31.0958 17.4404L30.8057 17.8477L30.8112 17.8515L31.0958 17.4404ZM31.0959 17.4405L31.3845 17.0321L31.3805 17.0294L31.0959 17.4405ZM31.096 17.4406L31.4084 17.0501L31.3968 17.0408L31.3846 17.0322L31.096 17.4406ZM31.0961 17.4406L30.7837 17.831L30.8007 17.8446L30.8187 17.8566L31.0961 17.4406ZM31.0961 17.4406L31.3862 17.0333L31.3799 17.0288L31.3734 17.0246L31.0961 17.4406ZM31.6202 17.7789L31.3786 18.2166L31.3788 18.2167L31.6202 17.7789ZM33.8883 17.0279L34.3709 17.1587L34.3709 17.1586L33.8883 17.0279ZM32.5702 14.0081L32.2373 14.3811L32.2373 14.3812L32.5702 14.0081ZM31.623 13.1857L31.9481 12.8058L31.9462 12.8042L31.623 13.1857ZM31.6228 13.1855L31.2971 13.5649L31.2996 13.567L31.6228 13.1855ZM31.6224 13.1852L31.9481 12.8058L31.9476 12.8054L31.6224 13.1852ZM31.0928 12.7295L31.4211 12.3523L30.9812 11.9695L30.67 12.4626L31.0928 12.7295ZM28.5927 16.6671L28.1714 16.3977L28.1714 16.3978L28.5927 16.6671ZM22.6733 14.3757L23.1729 14.3959L23.1729 14.3958L22.6733 14.3757ZM22.7979 11.5611L22.2985 11.5361L22.2984 11.538L22.7979 11.5611ZM22.7979 11.5607L23.2973 11.5857L23.2974 11.5833L22.7979 11.5607ZM22.798 11.5586L22.2986 11.5355L22.2985 11.536L22.798 11.5586ZM22.8789 9.72455L23.3785 9.74259L23.3785 9.74249L22.8789 9.72455ZM22.6236 9.65859L22.2823 9.29329L22.2822 9.29333L22.6236 9.65859ZM19.2956 15.9276L19.7742 16.0723L19.7742 16.0723L19.2956 15.9276ZM18.5084 19.325L18.0121 19.2642L18.0121 19.2642L18.5084 19.325ZM18.4724 19.6024L17.9775 19.5308L17.9775 19.5309L18.4724 19.6024ZM16.7492 19.886L16.6539 20.3768L16.6541 20.3769L16.7492 19.886ZM16.1656 19.5353L15.7845 19.859L15.7849 19.8594L16.1656 19.5353ZM15.834 18.7325L16.3238 18.6319L16.3237 18.6315L15.834 18.7325ZM15.7432 16.9017L15.2432 16.8983V16.9017H15.7432ZM15.8045 7.90003L16.3045 7.90344V7.90003H15.8045ZM18.1002 7.9218L17.8729 8.36716L17.8731 8.36724L18.1002 7.9218ZM18.3517 8.27633L18.8517 8.27961V8.27633H18.3517ZM18.314 14.03L17.814 14.0267L18.7788 14.2143L18.314 14.03ZM18.9715 12.3281L19.4408 12.5007L19.4408 12.5007L18.9715 12.3281ZM24.7636 8.05969L25.014 7.62692L25.014 7.62691L24.7636 8.05969ZM25.6544 9.40274L25.1548 9.38258L25.1548 9.38261L25.6544 9.40274ZM25.596 10.7878L25.0965 10.7663L25.0964 10.7664L25.596 10.7878ZM25.5959 10.791L26.0954 10.813L26.0954 10.8125L25.5959 10.791ZM25.5957 10.7935L25.0962 10.7716L25.0962 10.7716L25.5957 10.7935ZM25.5957 10.7947L25.0962 10.7728L25.0962 10.7732L25.5957 10.7947ZM25.4776 14.4814L25.9776 14.4814V14.4814H25.4776ZM25.4776 14.5381L24.9776 14.5381V14.5381H25.4776ZM25.4776 14.5381L25.9776 14.5382V14.5381H25.4776ZM28.5754 14.3469L28.1493 14.0853L28.1492 14.0854L28.5754 14.3469ZM28.7724 14.026L28.3465 13.7641L28.3463 13.7644L28.7724 14.026ZM30.0722 11.7689L30.5099 12.0105L30.6841 11.6948L30.4397 11.4298L30.0722 11.7689ZM29.9301 11.6092L30.3115 11.2859L30.3114 11.2858L29.9301 11.6092ZM29.4672 9.27382L29.9415 9.43209L29.9415 9.43208L29.4672 9.27382ZM32.8374 7.30227L32.7318 7.79099L32.7319 7.791L32.8374 7.30227ZM33.4039 9.32349L32.9524 9.10865L32.9524 9.1087L33.4039 9.32349ZM32.1987 11.1058L31.8589 10.739L31.4029 11.1614L31.9132 11.5163L32.1987 11.1058ZM34.7865 12.9425L34.489 13.3443L34.489 13.3443L34.7865 12.9425ZM36.5258 16.7093L36.0389 16.5956L35.7262 17.9355L36.8262 17.109L36.5258 16.7093ZM38.7278 13.035L39.2177 13.135L39.2281 13.0839L39.2278 13.0317L38.7278 13.035ZM38.7656 6.90487L39.2656 6.90939L39.27 6.41888L38.7797 6.40507L38.7656 6.90487ZM37.5629 6.87524L37.5745 6.37537L37.5739 6.37536L37.5629 6.87524ZM37.5627 6.87523L37.5737 6.37535L37.5731 6.37534L37.5627 6.87523ZM37.5626 6.87523L37.551 7.3751L37.5522 7.37512L37.5626 6.87523ZM35.7805 6.82779L35.7987 6.32812L35.7985 6.32811L35.7805 6.82779ZM37.519 4.90517L37.5398 4.40561L37.5398 4.40561L37.519 4.90517ZM38.9217 4.95277V5.45277H39.412L39.4216 4.96256L38.9217 4.95277ZM39.0647 1.61325L38.5678 1.55774L38.5677 1.55817L39.0647 1.61325ZM40.1534 1.05619L40.0582 1.54705L40.0583 1.54706L40.1534 1.05619ZM41.5772 1.43847L41.3925 1.9031L41.3935 1.90349L41.5772 1.43847ZM41.5934 1.44489L41.4097 1.90991L41.4098 1.90995L41.5934 1.44489ZM42.0981 1.89718L41.6001 1.85195L41.6 1.85276L42.0981 1.89718ZM41.9558 5.04962L41.4562 5.0294L41.4366 5.5147L41.9211 5.54842L41.9558 5.04962ZM43.7046 5.14897L43.694 5.64886L43.6947 5.64887L43.7046 5.14897ZM45.837 5.30863L46.0245 4.84513L46.0243 4.84503L45.837 5.30863ZM45.4464 6.91866L45.4225 6.41924L45.4224 6.41924L45.4464 6.91866ZM43.9243 6.94913L43.9236 6.44913L43.9236 6.44913L43.9243 6.94913ZM43.4139 6.95139L43.4087 6.45142L43.4084 6.45142L43.4139 6.95139ZM41.9116 6.97415L41.9036 6.47422L41.4499 6.48146L41.4132 6.93373L41.9116 6.97415ZM45.3069 14.6166L45.7995 14.7023L45.8073 14.6577L45.8069 14.6123L45.3069 14.6166ZM45.4222 12.8237L44.9264 12.7589L44.9264 12.7589L45.4222 12.8237ZM46.9614 8.72108L47.3578 9.02587L47.3578 9.02586L46.9614 8.72108ZM50.7465 7.3792L50.6121 7.8608L50.6124 7.86087L50.7465 7.3792ZM52.4531 8.67971L52.039 8.96001L52.9531 10.3102V8.67971H52.4531ZM53.0349 7.65963L53.0696 8.15843L53.0698 8.15842L53.0349 7.65963ZM54.0216 7.75766L54.1282 7.26914L54.1278 7.26906L54.0216 7.75766ZM55.2037 8.49497L55.7036 8.48812L55.7036 8.48747L55.2037 8.49497ZM55.1906 8.91392L54.6909 8.89453L54.6908 8.89943L55.1906 8.91392ZM55.1906 8.91432L55.6902 8.9337L55.6903 8.9288L55.1906 8.91432ZM55.1533 10.0799L54.6534 10.069L54.6534 10.0691L55.1533 10.0799ZM55.1149 11.3847L54.6152 11.3678L54.6149 11.3762V11.3847H55.1149ZM55.1149 11.385L55.6144 11.4085L55.6149 11.3968V11.385H55.1149ZM55.1149 11.3853L54.6154 11.3618L54.6152 11.3684L55.1149 11.3853ZM57.9617 16.379L58.4505 16.4842L58.4723 16.3828L58.452 16.2811L57.9617 16.379ZM57.8825 12.8433L57.3852 12.7911L57.3852 12.7911L57.8825 12.8433ZM59.4217 8.72108L59.0237 8.41846L59.0237 8.41846L59.4217 8.72108ZM63.2068 7.3792L63.0724 7.8608L63.0727 7.86087L63.2068 7.3792ZM64.9134 8.67971L64.4993 8.96001L65.4134 10.3102V8.67971H64.9134ZM64.9116 8.23131L64.4118 8.24459L64.4118 8.24537L64.9116 8.23131ZM65.8068 7.6588L65.7704 8.15748L65.7705 8.15748L65.8068 7.6588ZM67.0491 7.91964L66.8755 8.38854L66.8756 8.38856L67.0491 7.91964ZM67.6643 8.51158L68.1643 8.50473L68.1643 8.50383L67.6643 8.51158ZM67.6514 8.91746L67.1517 8.89758L67.1516 8.9026L67.6514 8.91746ZM67.6514 8.91785L68.151 8.93773L68.1511 8.93271L67.6514 8.91785ZM67.6136 10.0799L68.1135 10.0909L68.1135 10.0909L67.6136 10.0799ZM67.5636 16.1619L67.0636 16.1635L67.0636 16.1636L67.5636 16.1619ZM67.5671 16.783L67.0671 16.7869L67.0782 18.2223L67.9613 17.0907L67.5671 16.783ZM68.7785 14.9954L68.3541 14.7311L68.354 14.7312L68.7785 14.9954ZM70.7207 10.4539L71.2077 10.5671L71.2939 10.1964L70.9595 10.0146L70.7207 10.4539ZM69.8914 8.77541L69.3963 8.70576L69.3963 8.70582L69.8914 8.77541ZM70.6502 7.31806L70.3229 6.94009L70.3228 6.94011L70.6502 7.31806ZM73.1394 8.38349L72.6432 8.32181L72.6432 8.32191L73.1394 8.38349ZM73.0461 8.91463L72.5629 8.78581L72.3688 9.51377L73.115 9.40985L73.0461 8.91463ZM75.4732 8.49912L75.3656 8.01084L75.3655 8.01086L75.4732 8.49912ZM77.3166 8.78122L77.6826 8.44053L77.6826 8.4405L77.3166 8.78122ZM77.6112 10.1881L77.1239 10.0763L77.1239 10.0764L77.6112 10.1881ZM77.4158 11.0182L77.902 11.1348L77.9021 11.1343L77.4158 11.0182ZM77.4153 11.0201L77.9011 11.1383L77.9015 11.1367L77.4153 11.0201ZM77.4151 11.0208L77.8987 11.1484L77.901 11.139L77.4151 11.0208ZM77.4151 11.0211L76.9315 10.8935L76.9288 10.9049L77.4151 11.0211ZM76.8451 14.5488L76.3453 14.5329L76.3453 14.533L76.8451 14.5488ZM79.8774 16.6147L80.3629 16.7342L80.3913 16.6187L80.3647 16.5028L79.8774 16.6147ZM79.7173 12.8569L79.2203 12.8018L79.2203 12.8018L79.7173 12.8569ZM81.2565 8.72108L81.6545 9.02374L81.6545 9.02371L81.2565 8.72108ZM85.0415 7.3792L84.9071 7.86078L84.9074 7.86087L85.0415 7.3792ZM86.7482 8.67971L86.3341 8.96001L87.2584 10.3254L87.2481 8.6766L86.7482 8.67971ZM87.3613 7.65764L87.388 8.15693L87.388 8.15693L87.3613 7.65764ZM88.3167 7.75766L88.2102 8.24619L88.2104 8.24622L88.3167 7.75766ZM89.4987 8.4948L89.9987 8.48796L89.9987 8.48731L89.4987 8.4948ZM89.4856 8.9129L88.986 8.89346L88.9856 8.90318V8.9129H89.4856ZM89.4856 8.9142L89.9847 8.94515L89.9856 8.92969V8.9142H89.4856ZM89.4856 8.91457L88.9864 8.88361L88.986 8.89575L89.4856 8.91457ZM89.4856 8.91578L89.9852 8.93515L89.9852 8.9346L89.4856 8.91578ZM89.4484 10.0797L88.9485 10.0688L88.9485 10.0689L89.4484 10.0797ZM89.41 11.3853L88.9103 11.3684L88.9103 11.3684L89.41 11.3853ZM92.6002 15.3479L93.0911 15.4429L93.1004 15.3949L93.1002 15.3461L92.6002 15.3479ZM92.6684 8.21996L93.1683 8.22811L93.1683 8.22783L92.6684 8.21996ZM92.6709 8.06002L93.1709 8.0679V8.06002H92.6709ZM94.9033 7.79537L95.0357 7.31322L95.0347 7.31295L94.9033 7.79537ZM95.3216 8.4124L94.8216 8.41001L94.8216 8.41037L95.3216 8.4124ZM95.3115 12.68L94.8115 12.6791L95.7819 12.8494L95.3115 12.68ZM95.9922 10.7576L95.5202 10.5925L95.5202 10.5925L95.9922 10.7576ZM97.3711 7.71429L97.7377 8.05432L97.7426 8.04906L97.7473 8.04366L97.3711 7.71429ZM99.5925 7.88508L99.3373 8.31505L99.3373 8.31506L99.5925 7.88508ZM100.392 9.3333L99.8921 9.33687L99.8921 9.33694L100.392 9.3333ZM100.638 14.1781L100.141 14.2296L100.141 14.2297L100.638 14.1781ZM100.66 14.3957L101.158 14.3468L101.158 14.3459L100.66 14.3957ZM100.742 14.4515L100.246 14.3891L100.246 14.3893L100.742 14.4515ZM102.673 8.20024L103.131 8.4019L103.131 8.40188L102.673 8.20024ZM104.69 7.68983L104.851 7.21664L104.851 7.21664L104.69 7.68983ZM104.696 7.69203L104.858 7.21886L104.858 7.21884L104.696 7.69203ZM106.298 9.2288L106.798 9.25718L106.798 9.25705L106.298 9.2288ZM106.249 15.6674L105.751 15.708L105.751 15.708L106.249 15.6674ZM86.7206 13.7653L87.22 13.7899L87.22 13.7899L86.7206 13.7653ZM85.9086 17.0484L85.4669 16.8142L85.4669 16.8142L85.9086 17.0484ZM84.988 9.24973L85.032 8.75167L85.0319 8.75166L84.988 9.24973ZM82.6335 12.0726L83.1266 12.1551L83.1266 12.155L82.6335 12.0726ZM82.7588 16.8576L82.2832 17.0121L82.2833 17.0121L82.7588 16.8576ZM63.9627 27.4799L64.2519 27.8878L64.252 27.8878L63.9627 27.4799ZM65.211 22.4962L64.711 22.4924L64.711 22.4924L65.211 22.4962ZM61.503 25.9847L61.9938 26.08L61.9938 26.08L61.503 25.9847ZM65.2144 21.0489L65.7143 21.044L65.7032 19.9137L64.8744 20.6823L65.2144 21.0489ZM64.8858 13.7515L65.385 13.7799L65.385 13.7799L64.8858 13.7515ZM64.0739 17.0484L63.6321 16.8142L63.6321 16.8142L64.0739 17.0484ZM60.7987 12.2633L60.3078 12.1682L60.3078 12.1682L60.7987 12.2633ZM60.924 16.8576L61.4004 16.7057L61.4003 16.7056L60.924 16.8576ZM51.6135 17.0484L51.1752 16.8079L51.1751 16.808L51.6135 17.0484ZM52.4255 13.7321L51.9263 13.7033L51.9263 13.7034L52.4255 13.7321ZM48.4637 16.8576L47.989 17.0147L47.989 17.0148L48.4637 16.8576ZM48.3384 12.0392L48.8299 12.1311L48.8299 12.131L48.3384 12.0392ZM50.6929 9.2499L50.6471 9.7478L50.6472 9.7478L50.6929 9.2499ZM10.221 0.632166C7.92429 1.53658 5.44698 4.05097 4.66101 7.21031L5.63143 7.45173C6.33784 4.61219 8.58585 2.35081 10.5874 1.56262L10.221 0.632166ZM13.7212 2.0559C13.7129 1.65624 13.4298 1.36704 13.2056 1.1956C12.9568 1.00533 12.6377 0.849318 12.3094 0.734856C11.9781 0.619345 11.6131 0.537642 11.2606 0.510153C10.9151 0.483207 10.5431 0.505311 10.221 0.632178L10.5875 1.56261C10.7148 1.51246 10.918 1.48647 11.1828 1.50713C11.4407 1.52724 11.7213 1.58884 11.9802 1.67911C12.2421 1.77043 12.4579 1.88268 12.5981 1.98992C12.7629 2.11599 12.723 2.15356 12.7214 2.07671L13.7212 2.0559ZM13.7515 9.71223C13.7572 7.7948 13.7677 4.29683 13.7212 2.05593L12.7214 2.07668C12.7676 4.30303 12.7572 7.78741 12.7515 9.70925L13.7515 9.71223ZM13.7492 10.5728C13.7496 10.3469 13.7504 10.0548 13.7515 9.71223L12.7515 9.70925C12.7505 10.0516 12.7496 10.3444 12.7492 10.5712L13.7492 10.5728ZM13.7485 11.0604C13.7487 10.8883 13.7489 10.7252 13.7492 10.5729L12.7492 10.5711C12.7489 10.7237 12.7487 10.887 12.7485 11.0591L13.7485 11.0604ZM13.6826 16.8802C13.7431 15.2365 13.7463 12.7249 13.7485 11.0604L12.7485 11.0591C12.7463 12.7304 12.7429 15.2215 12.6833 16.8434L13.6826 16.8802ZM12.347 21.1807C13.3076 19.9201 13.6257 18.4267 13.6826 16.8802L12.6833 16.8434C12.6302 18.2853 12.3371 19.5438 11.5516 20.5746L12.347 21.1807ZM9.34573 22.5583C9.48727 22.678 9.65054 22.718 9.77643 22.7294C9.90469 22.741 10.0327 22.7266 10.1485 22.7026C10.3806 22.6544 10.6343 22.5522 10.8821 22.4197C11.3788 22.1542 11.9337 21.7229 12.3469 21.1808L11.5516 20.5745C11.2367 20.9877 10.7986 21.3304 10.4107 21.5378C10.2161 21.6418 10.0546 21.7008 9.94522 21.7235C9.89033 21.7349 9.86604 21.7334 9.86628 21.7334C9.86761 21.7336 9.88116 21.7348 9.90265 21.7425C9.92475 21.7504 9.95731 21.7658 9.99153 21.7948L9.34573 22.5583ZM9.27609 21.081C9.20407 21.296 9.12055 21.5398 9.08894 21.7501C9.0578 21.9573 9.05042 22.3086 9.34582 22.5583L9.99144 21.7947C10.0394 21.8352 10.0637 21.8876 10.0715 21.9232C10.0768 21.9473 10.0708 21.9459 10.0778 21.8987C10.0846 21.8539 10.0994 21.7913 10.1258 21.7027C10.1519 21.6148 10.1848 21.5165 10.2243 21.3986L9.27609 21.081ZM9.48469 20.3969C9.42216 20.6443 9.34729 20.8685 9.27609 21.081L10.2243 21.3986C10.2946 21.1886 10.3812 20.9309 10.4542 20.642L9.48469 20.3969ZM9.80207 16.1132C9.80207 18.8083 9.68292 19.6134 9.48472 20.3968L10.4542 20.6421C10.6833 19.7363 10.8021 18.8317 10.8021 16.1132H9.80207ZM9.84071 8.15164C9.82303 11.2647 9.80207 14.9554 9.80207 16.1132H10.8021C10.8021 14.9591 10.823 11.2728 10.8407 8.15732L9.84071 8.15164ZM9.86481 3.4597C9.86481 3.90859 9.85364 5.87499 9.84071 8.15164L10.8407 8.15732C10.8536 5.88346 10.8648 3.91234 10.8648 3.4597H9.86481ZM9.86486 3.38154C9.86484 3.40682 9.86481 3.43297 9.86481 3.4597H10.8648C10.8648 3.43358 10.8648 3.40795 10.8649 3.38259L9.86486 3.38154ZM10.3937 3.16451C10.4115 3.15053 10.4077 3.15625 10.3857 3.16633C10.3656 3.17552 10.2958 3.20441 10.1954 3.19399C10.0788 3.18191 9.98366 3.12369 9.9225 3.0546C9.87166 2.99715 9.85556 2.94564 9.85317 2.93801C9.84962 2.92666 9.85718 2.94978 9.86131 3.04616C9.86502 3.13303 9.86501 3.24116 9.86486 3.38154L10.8649 3.38259C10.865 3.24949 10.8652 3.11689 10.8604 3.0034C10.8559 2.89943 10.8461 2.76259 10.8075 2.63932C10.7732 2.52973 10.6483 2.23558 10.2985 2.19932C10.1585 2.18481 10.0426 2.22352 9.96872 2.25741C9.89289 2.2922 9.82754 2.3375 9.77494 2.37894L10.3937 3.16451ZM8.02532 9.3551C7.8921 8.17917 8.11577 6.91512 8.56775 5.79144C9.02126 4.66396 9.68695 3.72116 10.3937 3.16452L9.77496 2.37892C8.8967 3.07064 8.14025 4.17456 7.63999 5.41826C7.1382 6.66578 6.87644 8.09738 7.03167 9.46766L8.02532 9.3551ZM8.69302 11.1278C8.45513 10.7765 8.1329 10.3052 8.02532 9.35512L7.03167 9.46764C7.16572 10.6515 7.58961 11.2818 7.86505 11.6885L8.69302 11.1278ZM8.8826 12.4725C9.04143 12.2135 9.07577 11.9443 8.99204 11.6751C8.92629 11.4637 8.78681 11.2662 8.69302 11.1278L7.86505 11.6885C7.92169 11.7722 7.96172 11.8316 7.993 11.8843C8.02386 11.9363 8.03408 11.9622 8.03717 11.9721C8.03869 11.977 8.03449 11.9645 8.03719 11.9444C8.03969 11.9259 8.04481 11.9258 8.03015 11.9497L8.8826 12.4725ZM4.661 7.21033C4.13588 9.32152 4.97521 10.8546 5.99237 11.7656C6.49358 12.2145 7.0441 12.5198 7.50896 12.6782C7.73861 12.7564 7.97071 12.8068 8.1791 12.8083C8.34183 12.8095 8.69326 12.7814 8.88265 12.4724L8.0301 11.9498C8.13885 11.7724 8.29683 11.8092 8.18645 11.8083C8.12173 11.8079 8.00105 11.7894 7.83143 11.7316C7.49773 11.6179 7.06368 11.3827 6.65954 11.0207C5.86601 10.31 5.21153 9.13989 5.63143 7.4517L4.661 7.21033ZM109.528 14.8175C109.165 14.8175 108.908 15.0138 108.749 15.2622C108.609 15.4792 108.529 15.7552 108.469 16.0153L109.443 16.2409C109.471 16.1233 109.497 16.028 109.524 15.9514C109.551 15.8737 109.574 15.8276 109.59 15.8022C109.606 15.7781 109.607 15.7858 109.586 15.7987C109.56 15.8142 109.536 15.8175 109.528 15.8175V14.8175ZM110.468 16.4839C110.519 16.1361 110.518 15.7677 110.404 15.4601C110.346 15.3013 110.249 15.1374 110.093 15.012C109.931 14.8815 109.735 14.8175 109.528 14.8175V15.8175C109.528 15.8175 109.519 15.8175 109.505 15.8126C109.491 15.8077 109.477 15.8 109.466 15.7914C109.446 15.7746 109.452 15.7685 109.466 15.8059C109.497 15.891 109.518 16.0695 109.478 16.3389L110.468 16.4839ZM107.119 20.4509C107.934 20.4509 108.694 20.1531 109.292 19.4731C109.876 18.8094 110.272 17.8189 110.468 16.4838L109.478 16.3389C109.298 17.5687 108.95 18.348 108.541 18.8128C108.147 19.2614 107.668 19.4509 107.119 19.4509V20.4509ZM103.529 17.1633C103.873 18.583 104.56 19.4225 105.293 19.8978C106.014 20.3644 106.734 20.4509 107.119 20.4509V19.4509C106.866 19.4509 106.351 19.3913 105.837 19.0585C105.337 18.7343 104.79 18.1211 104.501 16.9277L103.529 17.1633ZM103.214 10.488C103.189 11.0334 103.147 12.1965 103.17 13.4689C103.193 14.7306 103.281 16.1416 103.529 17.1633L104.501 16.9278C104.281 16.0206 104.193 14.7039 104.17 13.4504C104.147 12.2077 104.188 11.0682 104.213 10.5354L103.214 10.488ZM104.036 10.7358C104.051 10.7039 104.028 10.7731 103.94 10.8379C103.887 10.8774 103.792 10.928 103.664 10.9278C103.533 10.9276 103.431 10.8743 103.368 10.8232C103.266 10.7403 103.236 10.6436 103.233 10.6335C103.228 10.6188 103.211 10.5671 103.215 10.4876L104.213 10.5358C104.218 10.4417 104.196 10.3602 104.181 10.3151C104.167 10.2745 104.122 10.1467 103.998 10.0463C103.924 9.98652 103.811 9.92803 103.666 9.92779C103.524 9.92756 103.414 9.98333 103.344 10.0352C103.224 10.1245 103.161 10.2464 103.131 10.3099L104.036 10.7358ZM104.017 10.7773L104.036 10.7358L103.131 10.3099L103.112 10.3514L104.017 10.7773ZM102.745 14.1455C103.127 12.6695 103.759 11.3246 104.017 10.7774L103.112 10.3513C102.853 10.9009 102.184 12.32 101.777 13.8952L102.745 14.1455ZM102.115 18.3001C102.115 18.3004 102.115 18.298 102.114 18.2922C102.114 18.2866 102.114 18.2789 102.113 18.269C102.112 18.249 102.112 18.2225 102.112 18.1892C102.111 18.1227 102.113 18.0342 102.118 17.9245C102.128 17.7055 102.15 17.4084 102.192 17.0438C102.277 16.3146 102.441 15.3208 102.745 14.1455L101.777 13.8952C101.461 15.1175 101.288 16.1566 101.199 16.9286C101.112 17.6825 101.099 18.2163 101.121 18.4126L102.115 18.3001ZM100.644 19.4973C100.838 19.4973 101.177 19.4746 101.48 19.3431C101.635 19.2755 101.813 19.1652 101.945 18.9829C102.085 18.7892 102.144 18.5537 102.115 18.3001L101.121 18.4126C101.124 18.4359 101.119 18.419 101.134 18.3974C101.142 18.3872 101.135 18.4026 101.081 18.426C100.965 18.4765 100.787 18.4973 100.644 18.4973V19.4973ZM98.5178 18.3436C98.8292 18.8607 99.2017 19.1669 99.606 19.3311C99.9957 19.4894 100.374 19.4973 100.644 19.4973V18.4973C100.388 18.4973 100.179 18.4846 99.9824 18.4047C99.8003 18.3307 99.5873 18.1811 99.3746 17.8278L98.5178 18.3436ZM97.8478 15.2472C97.9385 16.0728 98.0454 16.7381 98.1552 17.2416C98.2603 17.7238 98.3793 18.1139 98.5181 18.344L99.3743 17.8274C99.3295 17.7531 99.2372 17.5102 99.1322 17.0286C99.0319 16.5685 98.9299 15.9394 98.8418 15.138L97.8478 15.2472ZM97.5602 10.8546C97.5744 11.479 97.6113 13.0996 97.8478 15.2473L98.8418 15.1379C98.61 13.0329 98.5739 11.446 98.5599 10.8319L97.5602 10.8546ZM97.5586 10.7846L97.5602 10.8548L98.5599 10.8317L98.5583 10.7615L97.5586 10.7846ZM98.1504 11.0565C98.173 11.0185 98.1861 11.0063 98.1826 11.0097C98.1804 11.0117 98.1683 11.0231 98.1452 11.0365C98.1229 11.0494 98.0783 11.0713 98.0142 11.0802C97.9456 11.0897 97.8596 11.0831 97.7736 11.0419C97.689 11.0013 97.635 10.9419 97.6041 10.8938C97.5512 10.8114 97.5578 10.7521 97.5586 10.7845L98.5583 10.7616C98.5559 10.6554 98.5381 10.4976 98.4456 10.3535C98.3949 10.2746 98.3173 10.1936 98.206 10.1402C98.0933 10.0862 97.9776 10.0757 97.877 10.0896C97.6944 10.1149 97.5645 10.2176 97.4939 10.2846C97.4134 10.3611 97.3462 10.4525 97.2909 10.5454L98.1504 11.0565ZM98.1266 11.0965L98.1501 11.057L97.2912 10.5449L97.2677 10.5844L98.1266 11.0965ZM96.7115 14.7709C97.3095 12.4561 97.8607 11.5421 98.1265 11.0966L97.2678 10.5843C96.9599 11.1001 96.3682 12.1018 95.7433 14.5208L96.7115 14.7709ZM96.3617 18.3224C96.3958 17.1844 96.439 15.826 96.7115 14.7709L95.7433 14.5208C95.4373 15.7056 95.3954 17.1846 95.3621 18.2924L96.3617 18.3224ZM96.3617 18.3206L96.3618 18.3197L95.3621 18.2952L95.362 18.2961L96.3617 18.3206ZM96.3276 19.2358C96.3425 18.9642 96.3518 18.6524 96.3617 18.3234L95.3621 18.2934C95.3521 18.6259 95.3431 18.9243 95.3291 19.1811L96.3276 19.2358ZM95.4933 20.3564C95.7111 20.315 95.9319 20.203 96.0938 19.9816C96.2464 19.7729 96.3124 19.5135 96.3276 19.2358L95.3291 19.1811C95.3201 19.3457 95.2854 19.3931 95.2866 19.3914C95.2883 19.389 95.2945 19.3823 95.304 19.3766C95.3124 19.3716 95.3152 19.3724 95.3065 19.374L95.4933 20.3564ZM93.1525 20.24C94.1525 20.5886 95.1498 20.4217 95.4933 20.3564L95.3066 19.374C94.9944 19.4333 94.2193 19.5528 93.4816 19.2957L93.1525 20.24ZM92.3419 19.6344C92.3978 19.7709 92.4937 19.8631 92.549 19.911C92.6136 19.9671 92.6846 20.0145 92.7491 20.0528C92.8783 20.1296 93.0256 20.1958 93.1524 20.24L93.4816 19.2957C93.4121 19.2715 93.3263 19.2326 93.2599 19.1931C93.2266 19.1733 93.2092 19.1599 93.204 19.1555C93.2019 19.1536 93.2079 19.1584 93.2178 19.1705C93.2269 19.1815 93.2485 19.2097 93.2671 19.2551L92.3419 19.6344ZM92.1503 17.9796C92.1657 18.3415 92.1859 18.6773 92.2125 18.9496C92.2258 19.0854 92.2413 19.2111 92.2597 19.3192C92.2766 19.4185 92.301 19.5352 92.3421 19.6351L93.2668 19.2544C93.27 19.262 93.2599 19.2363 93.2455 19.1514C93.2325 19.0754 93.2198 18.9753 93.2078 18.8522C93.1837 18.6064 93.1645 18.2913 93.1494 17.937L92.1503 17.9796ZM90.0673 20.4509C90.6101 20.4509 91.1795 20.3451 91.7208 19.9786C92.2563 19.6161 92.7155 19.0315 93.1059 18.1633L92.1938 17.7533C91.8528 18.5118 91.4957 18.9234 91.1602 19.1506C90.8305 19.3738 90.4743 19.4509 90.0673 19.4509V20.4509ZM86.7429 17.5163C87.1238 19.7522 88.9922 20.4509 90.0673 20.4509V19.4509C89.3188 19.4509 88.0034 18.9608 87.7287 17.3483L86.7429 17.5163ZM87.0901 18.5662C87.2767 18.3261 87.4226 18.1029 87.5221 17.9393C87.572 17.8572 87.6106 17.7895 87.6373 17.7412C87.6507 17.7171 87.661 17.6978 87.6684 17.684C87.672 17.6771 87.6749 17.6715 87.6771 17.6674C87.6781 17.6654 87.679 17.6637 87.6797 17.6624C87.68 17.6617 87.6803 17.6612 87.6806 17.6607C87.6807 17.6604 87.6808 17.6602 87.6809 17.66C87.6809 17.66 87.681 17.6599 87.681 17.6598C87.6811 17.6597 87.6811 17.6597 87.6811 17.6597C87.6811 17.6596 87.6812 17.6595 87.2358 17.4323C86.7904 17.2051 86.7904 17.205 86.7905 17.205C86.7905 17.2049 86.7905 17.2049 86.7905 17.2049C86.7905 17.2048 86.7906 17.2047 86.7906 17.2047C86.7906 17.2046 86.7907 17.2045 86.7907 17.2045C86.7908 17.2044 86.7908 17.2044 86.7907 17.2044C86.7906 17.2046 86.7904 17.2051 86.7899 17.206C86.789 17.2077 86.7874 17.2108 86.785 17.2153C86.7803 17.2242 86.7727 17.2383 86.7623 17.257C86.7416 17.2946 86.7098 17.3504 86.6676 17.4197C86.5831 17.5587 86.4587 17.749 86.3006 17.9525L87.0901 18.5662ZM80.1859 18.6874C81.0695 20.0034 82.3874 20.5331 83.6948 20.4395C84.9835 20.3473 86.2451 19.6537 87.0901 18.5661L86.3005 17.9525C85.6178 18.8311 84.6106 19.3715 83.6234 19.4421C82.6547 19.5114 81.6894 19.1327 81.0161 18.13L80.1859 18.6874ZM79.9467 18.2797C80.0176 18.4146 80.0963 18.554 80.1858 18.6873L81.0161 18.1301C80.954 18.0375 80.8938 17.9323 80.8318 17.8144L79.9467 18.2797ZM77.7332 20.4445C79.0496 20.4445 80.2278 19.5223 80.8389 18.2657L79.9396 17.8283C79.4479 18.8395 78.5681 19.4445 77.7332 19.4445V20.4445ZM74.1093 17.716C74.881 19.7587 76.6386 20.4445 77.7332 20.4445V19.4445C76.9901 19.4445 75.648 18.9592 75.0447 17.3626L74.1093 17.716ZM74.2528 10.5276C74.2036 10.7101 73.909 11.8037 73.7531 13.1902C73.5989 14.5618 73.5713 16.2924 74.1093 17.716L75.0447 17.3626C74.5926 16.166 74.5976 14.6292 74.7468 13.3019C74.8944 11.9894 75.1741 10.9522 75.2184 10.7879L74.2528 10.5276ZM74.2562 10.5151L74.2528 10.5279L75.2184 10.7876L75.2219 10.7748L74.2562 10.5151ZM74.4441 10.9019C74.4728 10.9002 74.4946 10.8996 74.511 10.8997C74.5191 10.8998 74.5251 10.9 74.5295 10.9003C74.5316 10.9004 74.5332 10.9005 74.5343 10.9006C74.5349 10.9006 74.5353 10.9007 74.5356 10.9007C74.5358 10.9007 74.536 10.9008 74.536 10.9008C74.536 10.9008 74.5358 10.9007 74.5355 10.9007C74.5352 10.9006 74.5348 10.9006 74.5342 10.9005C74.533 10.9003 74.5311 10.9 74.5286 10.8994C74.5238 10.8984 74.5159 10.8966 74.5056 10.8932C74.4855 10.8867 74.4515 10.8729 74.4133 10.8451C74.3732 10.8159 74.3348 10.7757 74.3053 10.7248C74.2763 10.6748 74.2633 10.6272 74.2579 10.5906C74.2486 10.5266 74.2624 10.492 74.2561 10.5153L75.222 10.7745C75.243 10.6962 75.2666 10.5782 75.2476 10.4468C75.2252 10.293 75.1465 10.1419 75.0017 10.0366C74.8778 9.94632 74.7446 9.91881 74.6573 9.90814C74.5649 9.89685 74.4697 9.8985 74.3829 9.90382L74.4441 10.9019ZM72.6251 10.4527C72.621 10.9527 72.621 10.9527 72.6211 10.9527C72.6211 10.9527 72.6211 10.9527 72.6211 10.9527C72.6212 10.9527 72.6213 10.9527 72.6213 10.9527C72.6215 10.9527 72.6217 10.9527 72.622 10.9527C72.6225 10.9527 72.6232 10.9527 72.6241 10.9527C72.626 10.9527 72.6287 10.9528 72.6322 10.9528C72.6391 10.9528 72.6493 10.9529 72.6625 10.9529C72.6888 10.953 72.7271 10.953 72.7759 10.9529C72.8734 10.9527 73.0127 10.9518 73.1811 10.949C73.5174 10.9436 73.9726 10.931 74.4442 10.9019L74.3828 9.90383C73.9311 9.93162 73.4921 9.94389 73.165 9.94918C73.0017 9.95182 72.867 9.9527 72.7734 9.95293C72.7267 9.95304 72.6902 9.95299 72.6656 9.95292C72.6533 9.95288 72.644 9.95283 72.6378 9.9528C72.6348 9.95278 72.6325 9.95277 72.631 9.95276C72.6303 9.95275 72.6298 9.95275 72.6294 9.95275C72.6293 9.95274 72.6292 9.95274 72.6291 9.95274C72.6291 9.95274 72.6291 9.95274 72.6291 9.95274C72.6291 9.95274 72.6291 9.95274 72.6291 9.95274C72.6291 9.95274 72.6291 9.95274 72.6251 10.4527ZM70.611 15.6235C71.5559 14.1526 72.5725 12.1729 73.0988 10.6125L72.1513 10.2929C71.6578 11.7559 70.683 13.6612 69.7696 15.083L70.611 15.6235ZM67.9586 19.0493C68.7953 18.1359 69.7399 16.9794 70.611 15.6235L69.7696 15.083C68.9356 16.3813 68.0282 17.4929 67.2212 18.3738L67.9586 19.0493ZM68.1233 20.6187C68.1123 20.0257 68.1003 19.3778 68.0899 18.7038L67.09 18.7193C67.1004 19.395 67.1125 20.0445 67.1235 20.6373L68.1233 20.6187ZM68.1448 21.8196C68.1389 21.4567 68.1314 21.0522 68.1233 20.6187L67.1235 20.6373C67.1316 21.0711 67.1391 21.4743 67.145 21.8359L68.1448 21.8196ZM66.8787 27.4373C67.3015 26.8532 67.6218 25.9825 67.8341 25.0187C68.0488 24.0439 68.1629 22.9277 68.1448 21.8196L67.145 21.836C67.1618 22.8691 67.0549 23.9074 66.8575 24.8036C66.6577 25.7109 66.3749 26.4278 66.0686 26.851L66.8787 27.4373ZM62.6849 29.4874C64.465 29.6203 65.97 28.6926 66.8787 27.4373L66.0686 26.851C65.3205 27.8845 64.126 28.5922 62.7594 28.4902L62.6849 29.4874ZM58.9469 25.7255C58.8508 27.0366 59.3783 27.9743 60.1579 28.5806C60.9131 29.1678 61.8784 29.4273 62.685 29.4874L62.7593 28.4902C62.0816 28.4396 61.3255 28.2217 60.7718 27.7911C60.2426 27.3796 59.8738 26.7593 59.9443 25.7986L58.9469 25.7255ZM63.3602 20.0629C62.2006 21.0619 61.1429 21.9718 60.3632 22.8596C59.5827 23.7483 59.0239 24.6764 58.9469 25.7255L59.9442 25.7987C59.9978 25.0685 60.3913 24.343 61.1145 23.5195C61.8385 22.6952 62.836 21.8344 64.0129 20.8205L63.3602 20.0629ZM63.3698 20.0546L63.3602 20.0629L64.0129 20.8205L64.0226 20.8122L63.3698 20.0546ZM65.093 19.2292C64.7664 18.8506 64.7664 18.8506 64.7664 18.8506C64.7664 18.8506 64.7664 18.8506 64.7664 18.8506C64.7664 18.8506 64.7663 18.8507 64.7663 18.8507C64.7662 18.8508 64.766 18.8509 64.7658 18.8511C64.7654 18.8515 64.7648 18.852 64.7639 18.8527C64.7623 18.8541 64.7598 18.8563 64.7566 18.8591C64.7501 18.8646 64.7406 18.8729 64.7282 18.8835C64.7035 18.9048 64.6676 18.9358 64.6229 18.9743C64.5335 19.0514 64.4087 19.159 64.2673 19.2809C63.9845 19.5247 63.6354 19.8257 63.3698 20.0546L64.0226 20.8121C64.2883 20.5832 64.6375 20.2821 64.9203 20.0383C65.0617 19.9164 65.1865 19.8088 65.2759 19.7317C65.3206 19.6931 65.3565 19.6622 65.3812 19.6409C65.3936 19.6302 65.4031 19.622 65.4096 19.6164C65.4128 19.6136 65.4153 19.6115 65.417 19.6101C65.4178 19.6093 65.4184 19.6088 65.4188 19.6084C65.419 19.6083 65.4192 19.6081 65.4193 19.608C65.4194 19.608 65.4194 19.608 65.4194 19.6079C65.4194 19.6079 65.4194 19.6079 65.4195 19.6079C65.4195 19.6079 65.4195 19.6079 65.093 19.2292ZM64.5487 18.0262L64.5933 19.2475L65.5926 19.211L65.5481 17.9897L64.5487 18.0262ZM65.2558 18.5656C65.3313 18.4681 65.3968 18.3797 65.454 18.3004L64.6428 17.7156C64.5915 17.7868 64.5329 17.8658 64.4653 17.9531L65.2558 18.5656ZM58.3511 18.6874C59.2348 20.0036 60.5555 20.5338 61.8638 20.4407C63.1538 20.3489 64.4162 19.6552 65.2566 18.5645L64.4645 17.9542C63.7877 18.8325 62.7814 19.3729 61.7928 19.4432C60.8224 19.5122 59.8545 19.1325 59.1813 18.13L58.3511 18.6874ZM58.0364 18.1502C58.1314 18.3365 58.236 18.516 58.3511 18.6875L59.1813 18.1299C59.09 17.994 59.0055 17.8492 58.9272 17.6959L58.0364 18.1502ZM55.6667 20.4411C56.2536 20.4411 56.8704 20.3098 57.4493 19.94C58.0274 19.5707 58.5326 18.986 58.9339 18.1367L58.0298 17.7095C57.692 18.4243 57.3002 18.8486 56.911 19.0973C56.5224 19.3455 56.1012 19.4411 55.6667 19.4411V20.4411ZM52.4442 17.4914C52.7048 19.6814 54.5903 20.4411 55.6667 20.4411V19.4411C54.9192 19.4411 53.6191 18.9017 53.4372 17.3732L52.4442 17.4914ZM52.7962 18.5646C53.0404 18.2478 53.1883 18.0233 53.2779 17.8702C53.3228 17.7934 53.3538 17.7334 53.3752 17.6877C53.3859 17.6648 53.3943 17.6452 53.4009 17.6287C53.4042 17.6204 53.4071 17.6129 53.4096 17.6061C53.4108 17.6026 53.412 17.5994 53.413 17.5963C53.4136 17.5948 53.4141 17.5933 53.4146 17.5918C53.4148 17.5911 53.4151 17.5903 53.4153 17.5896C53.4154 17.5893 53.4155 17.5889 53.4156 17.5886C53.4157 17.5884 53.4158 17.5881 53.4158 17.588C53.4159 17.5878 53.416 17.5875 52.9407 17.4323C52.4654 17.2771 52.4655 17.2768 52.4656 17.2766C52.4656 17.2765 52.4657 17.2762 52.4657 17.2761C52.4658 17.2757 52.4659 17.2754 52.4661 17.2751C52.4663 17.2744 52.4665 17.2738 52.4667 17.2731C52.4671 17.2719 52.4675 17.2707 52.4679 17.2696C52.4687 17.2674 52.4694 17.2654 52.47 17.2638C52.4712 17.2604 52.4721 17.2582 52.4725 17.2571C52.4734 17.2549 52.4725 17.2572 52.4692 17.2643C52.4626 17.2785 52.4464 17.3112 52.4148 17.3651C52.3514 17.4734 52.2291 17.6624 52.0042 17.954L52.7962 18.5646ZM45.8908 18.6874C46.7745 20.0036 48.0952 20.5338 49.4034 20.4407C50.6935 20.3489 51.9559 19.6552 52.7963 18.5645L52.0041 17.9542C51.3274 18.8325 50.3211 19.3729 49.3325 19.4432C48.3621 19.5122 47.3941 19.1325 46.721 18.13L45.8908 18.6874ZM45.075 16.819C45.2574 17.525 45.5304 18.1507 45.8908 18.6874L46.721 18.13C46.4313 17.6985 46.201 17.1794 46.0433 16.5689L45.075 16.819ZM42.2617 20.4499C43.1363 20.4499 43.9352 19.9269 44.5574 19.2718C45.1904 18.6054 45.7113 17.7312 46.0286 16.8662L45.0897 16.5218C44.8148 17.2715 44.3623 18.0252 43.8324 18.5831C43.2917 19.1523 42.738 19.4499 42.2617 19.4499V20.4499ZM38.3072 15.3619C38.4479 16.8866 38.8222 18.147 39.4748 19.0382C40.1449 19.9533 41.0896 20.4499 42.2617 20.4499V19.4499C41.4133 19.4499 40.7663 19.1093 40.2816 18.4473C39.7793 17.7614 39.4354 16.7048 39.3029 15.2699L38.3072 15.3619ZM32.3327 20.4847C33.7914 20.5306 35.1333 20.1985 36.3157 19.3786C37.4925 18.5626 38.4729 17.2902 39.2618 15.5193L38.3483 15.1124C37.6107 16.7683 36.7314 17.8735 35.7459 18.5569C34.7659 19.2364 33.6428 19.5254 32.3641 19.4852L32.3327 20.4847ZM29.8387 20.0153C30.1453 20.1436 30.5911 20.2534 31.0288 20.3335C31.473 20.4148 31.9498 20.4727 32.3327 20.4847L32.3641 19.4852C32.0444 19.4752 31.6191 19.4249 31.2088 19.3498C30.7919 19.2736 30.4306 19.179 30.2247 19.0928L29.8387 20.0153ZM28.54 18.3406C28.4721 18.5725 28.4778 18.8043 28.5611 19.0206C28.641 19.228 28.7786 19.3864 28.9182 19.506C29.1848 19.7342 29.5491 19.894 29.8386 20.0152L30.2248 19.0928C29.9191 18.9648 29.6986 18.8576 29.5686 18.7463C29.51 18.6961 29.4964 18.6666 29.4943 18.6613C29.4936 18.6595 29.4935 18.6588 29.4934 18.6567C29.4934 18.6542 29.4933 18.6433 29.4997 18.6213L28.54 18.3406ZM29.673 16.72C29.0727 17.1454 28.7293 17.6936 28.54 18.3405L29.4997 18.6214C29.6346 18.1605 29.8589 17.8139 30.2512 17.5359L29.673 16.72ZM30.9435 16.7351C30.7671 16.626 30.5562 16.5603 30.3489 16.5461C30.1455 16.5322 29.8916 16.5651 29.6729 16.72L30.2512 17.5359C30.2361 17.5465 30.2281 17.5471 30.2345 17.5457C30.2411 17.5442 30.2565 17.5421 30.2805 17.5438C30.3324 17.5473 30.3852 17.5656 30.4175 17.5856L30.9435 16.7351ZM31.3859 17.0331C31.2648 16.9469 31.127 16.8486 30.9436 16.7352L30.4174 17.5855C30.5708 17.6804 30.6856 17.7621 30.8058 17.8477L31.3859 17.0331ZM31.3805 17.0294L31.3804 17.0293L30.8112 17.8515L30.8113 17.8516L31.3805 17.0294ZM31.3846 17.0322L31.3845 17.0321L30.8073 17.8488L30.8075 17.8489L31.3846 17.0322ZM31.4084 17.0501L31.4084 17.0501L30.7837 17.831L30.7837 17.831L31.4084 17.0501ZM31.3734 17.0246L31.3734 17.0246L30.8187 17.8566L30.8187 17.8566L31.3734 17.0246ZM31.8619 17.3411C31.6701 17.2353 31.5423 17.1445 31.3862 17.0333L30.806 17.8479C30.9651 17.9611 31.1328 18.0809 31.3786 18.2166L31.8619 17.3411ZM33.4057 16.8972C33.3331 17.1652 33.1694 17.3963 32.954 17.5038C32.7624 17.5994 32.4222 17.6501 31.8617 17.341L31.3788 18.2167C32.1438 18.6386 32.8388 18.6788 33.4004 18.3986C33.9382 18.1303 34.2458 17.6205 34.3709 17.1587L33.4057 16.8972ZM32.2373 14.3812C33.3545 15.3778 33.5939 16.2024 33.4057 16.8972L34.3709 17.1586C34.6999 15.9442 34.1599 14.7562 32.9031 13.635L32.2373 14.3812ZM31.2979 13.5655C31.6051 13.8285 31.9216 14.0994 32.2373 14.3811L32.9031 13.635C32.5784 13.3453 32.2542 13.0679 31.9481 12.8058L31.2979 13.5655ZM31.2996 13.567L31.2998 13.5672L31.9462 12.8042L31.946 12.804L31.2996 13.567ZM31.2968 13.5646L31.2971 13.5649L31.9484 12.8061L31.9481 12.8058L31.2968 13.5646ZM30.7646 13.1066C30.9362 13.256 31.1153 13.4093 31.2973 13.5651L31.9476 12.8054C31.7649 12.649 31.589 12.4985 31.4211 12.3523L30.7646 13.1066ZM29.0139 16.9364C29.9515 15.47 30.8618 14.0323 31.5157 12.9963L30.67 12.4626C30.0167 13.4977 29.1076 14.9335 28.1714 16.3977L29.0139 16.9364ZM24.6934 20.4473C25.3436 20.4473 26.0497 20.1471 26.7634 19.5805C27.4817 19.0102 28.2427 18.1431 29.014 16.9363L28.1714 16.3978C27.4399 17.5423 26.7485 18.3154 26.1415 18.7973C25.5299 19.283 25.0379 19.4473 24.6934 19.4473V20.4473ZM22.1737 14.3556C22.0787 16.7132 22.2509 18.2101 22.6697 19.1311C22.8864 19.6075 23.1786 19.9518 23.5503 20.1693C23.9174 20.3841 24.3147 20.4473 24.6934 20.4473V19.4473C24.4223 19.4473 24.2184 19.4016 24.0553 19.3061C23.8967 19.2134 23.7296 19.0461 23.58 18.7172C23.2664 18.0274 23.0785 16.7386 23.1729 14.3959L22.1737 14.3556ZM22.2984 11.538C22.2581 12.4103 22.2111 13.4263 22.1737 14.3556L23.1729 14.3958C23.2102 13.47 23.257 12.4571 23.2974 11.5841L22.2984 11.538ZM22.2985 11.5357L22.2985 11.5361L23.2973 11.586L23.2973 11.5857L22.2985 11.5357ZM22.2985 11.536L22.2984 11.5381L23.2974 11.5833L23.2975 11.5811L22.2985 11.536ZM22.3792 9.70651C22.3652 10.0933 22.3346 10.7555 22.2986 11.5355L23.2975 11.5817C23.3334 10.8045 23.3643 10.1358 23.3785 9.74259L22.3792 9.70651ZM22.965 10.0239C22.9647 10.0242 22.9523 10.0361 22.9238 10.0492C22.8999 10.0601 22.8279 10.0884 22.7256 10.073C22.6024 10.0546 22.4913 9.98014 22.4281 9.87287C22.3762 9.78468 22.379 9.71306 22.3792 9.70661L23.3785 9.74249C23.3821 9.6425 23.3699 9.50158 23.2899 9.36563C23.1987 9.2106 23.0463 9.10992 22.8737 9.08407C22.722 9.06135 22.5926 9.10105 22.5083 9.13958C22.4194 9.18018 22.3437 9.23585 22.2823 9.29329L22.965 10.0239ZM19.7742 16.0723C20.894 12.3687 22.3399 10.6083 22.9651 10.0239L22.2822 9.29333C21.5084 10.0167 19.9793 11.9389 18.817 15.7829L19.7742 16.0723ZM19.0046 19.3858C19.0693 18.8582 19.1586 18.1083 19.7742 16.0723L18.817 15.7829C18.185 17.873 18.0838 18.679 18.0121 19.2642L19.0046 19.3858ZM18.9672 19.674C18.9811 19.5782 18.9928 19.4821 19.0046 19.3858L18.0121 19.2642C18 19.3626 17.9896 19.4477 17.9775 19.5308L18.9672 19.674ZM16.6541 20.3769C16.8111 20.4072 17.2625 20.4664 17.6976 20.4504C17.9116 20.4425 18.1634 20.4154 18.3827 20.3338C18.5926 20.2557 18.91 20.0702 18.9672 19.6739L17.9775 19.5309C17.9986 19.3852 18.1143 19.3667 18.0341 19.3965C17.9634 19.4228 17.8367 19.4446 17.6607 19.451C17.3161 19.4638 16.9421 19.414 16.8442 19.3951L16.6541 20.3769ZM15.7849 19.8594C15.9825 20.0916 16.2425 20.2969 16.6539 20.3768L16.8445 19.3951C16.7083 19.3687 16.636 19.3165 16.5463 19.2112L15.7849 19.8594ZM15.3442 18.8331C15.4232 19.2174 15.5619 19.597 15.7845 19.859L16.5466 19.2115C16.4819 19.1353 16.3884 18.9464 16.3238 18.6319L15.3442 18.8331ZM15.2432 16.9017C15.2432 17.5678 15.2598 18.4236 15.3443 18.8335L16.3237 18.6315C16.2644 18.3436 16.2432 17.6038 16.2432 16.9017H15.2432ZM15.3045 7.89663L15.2432 16.8983L16.2432 16.9051L16.3045 7.90344L15.3045 7.89663ZM16.3075 6.96093C16.0779 6.96093 15.8126 7.00969 15.6013 7.19429C15.3771 7.39014 15.3045 7.65771 15.3045 7.90003H16.3045C16.3045 7.8735 16.3084 7.87229 16.303 7.88641C16.3002 7.8938 16.2953 7.90413 16.2873 7.91573C16.2793 7.92744 16.2697 7.93822 16.2592 7.94738C16.2375 7.9663 16.222 7.97 16.2273 7.96846C16.2341 7.96648 16.2585 7.96093 16.3075 7.96093V6.96093ZM18.3275 7.47644C17.997 7.30778 17.1234 6.96093 16.3075 6.96093V7.96093C16.8999 7.96093 17.6102 8.23311 17.8729 8.36716L18.3275 7.47644ZM18.8517 8.27633C18.8517 7.91953 18.6372 7.63436 18.3273 7.47636L17.8731 8.36724C17.8991 8.38052 17.8918 8.38335 17.8774 8.36207C17.8704 8.35174 17.8635 8.33819 17.8586 8.32201C17.8537 8.30592 17.8517 8.29026 17.8517 8.27633H18.8517ZM18.814 14.0333L18.8517 8.27961L17.8517 8.27306L17.814 14.0267L18.814 14.0333ZM18.5022 12.1555C18.3932 12.452 18.2304 12.8734 18.0938 13.2234C18.0257 13.3978 17.9645 13.5535 17.9204 13.6656C17.8983 13.7216 17.8805 13.7667 17.8682 13.7977C17.8621 13.8133 17.8573 13.8253 17.8541 13.8334C17.8525 13.8375 17.8513 13.8406 17.8504 13.8426C17.85 13.8437 17.8497 13.8444 17.8495 13.845C17.8494 13.8452 17.8493 13.8454 17.8493 13.8455C17.8493 13.8456 17.8493 13.8456 17.8492 13.8457C17.8492 13.8457 17.8492 13.8457 17.8492 13.8457C17.8492 13.8457 17.8492 13.8457 18.314 14.03C18.7788 14.2143 18.7788 14.2143 18.7788 14.2142C18.7788 14.2142 18.7788 14.2142 18.7789 14.2142C18.7789 14.2142 18.7789 14.2141 18.7789 14.214C18.779 14.2139 18.7791 14.2137 18.7792 14.2134C18.7794 14.2129 18.7797 14.2121 18.7801 14.211C18.781 14.2089 18.7822 14.2057 18.7839 14.2016C18.7871 14.1933 18.792 14.1811 18.7982 14.1654C18.8106 14.1341 18.8285 14.0886 18.8508 14.0322C18.8952 13.9194 18.9568 13.7627 19.0254 13.587C19.1621 13.2368 19.328 12.8073 19.4408 12.5007L18.5022 12.1555ZM23.2389 6.96093C22.852 6.96093 22.0965 6.99453 21.2089 7.71128C20.3452 8.40873 19.3985 9.71857 18.5022 12.1555L19.4408 12.5007C20.3042 10.153 21.1684 9.02928 21.8371 8.4893C22.4819 7.96862 22.9803 7.96093 23.2389 7.96093V6.96093ZM25.014 7.62691C24.8314 7.52127 24.5403 7.36158 24.233 7.22675C23.9471 7.1013 23.5685 6.96093 23.2389 6.96093V7.96093C23.3405 7.96093 23.5498 8.01902 23.8312 8.14249C24.0913 8.25657 24.3469 8.39626 24.5132 8.49247L25.014 7.62691ZM26.154 9.4229C26.1711 8.99787 26.0642 8.6332 25.8396 8.32185C25.6254 8.02488 25.3263 7.80762 25.014 7.62692L24.5132 8.49246C24.7751 8.64404 24.9344 8.77633 25.0286 8.90683C25.1123 9.02295 25.1636 9.16366 25.1548 9.38258L26.154 9.4229ZM26.0955 10.8094C26.115 10.3568 26.1351 9.89184 26.154 9.42288L25.1548 9.38261C25.136 9.84995 25.116 10.3136 25.0965 10.7663L26.0955 10.8094ZM26.0954 10.8125L26.0955 10.8092L25.0964 10.7664L25.0963 10.7696L26.0954 10.8125ZM26.0953 10.8155L26.0954 10.813L25.0963 10.7691L25.0962 10.7716L26.0953 10.8155ZM26.0952 10.8166L26.0953 10.8155L25.0962 10.7716L25.0962 10.7728L26.0952 10.8166ZM25.9776 14.4814C25.9776 13.5461 26.0335 12.248 26.0952 10.8162L25.0962 10.7732C25.0348 12.196 24.9776 13.5195 24.9776 14.4814H25.9776ZM25.9776 14.5381L25.9776 14.4814L24.9776 14.4813L24.9776 14.5381L25.9776 14.5381ZM25.9776 14.5381V14.5381H24.9776V14.5381H25.9776ZM26.0119 16.9823C26.1728 16.9823 26.2026 17.1141 26.1575 17.0157C26.1155 16.9242 26.0725 16.7534 26.0408 16.4886C25.9783 15.9681 25.9776 15.2661 25.9776 14.5382L24.9776 14.5381C24.9776 15.2446 24.9768 16.0146 25.0479 16.6077C25.0829 16.8996 25.1401 17.1959 25.2484 17.4323C25.3536 17.6618 25.5838 17.9823 26.0119 17.9823V16.9823ZM28.1492 14.0854C27.5995 14.9812 27.1328 15.7408 26.726 16.2789C26.5226 16.548 26.3507 16.7391 26.2078 16.8589C26.0563 16.9859 25.9973 16.9823 26.0119 16.9823V17.9823C26.3462 17.9823 26.6314 17.8087 26.8502 17.6252C27.0777 17.4346 27.3024 17.1747 27.5237 16.8819C27.9665 16.2962 28.4617 15.4881 29.0015 14.6084L28.1492 14.0854ZM28.3463 13.7644L28.1493 14.0853L29.0014 14.6085L29.1985 14.2876L28.3463 13.7644ZM29.6344 11.5272C29.2677 12.1916 28.7676 13.0794 28.3465 13.7641L29.1983 14.2879C29.6323 13.5823 30.1417 12.6775 30.5099 12.0105L29.6344 11.5272ZM29.5487 11.9325C29.5992 11.9922 29.6524 12.0513 29.7047 12.1079L30.4397 11.4298C30.3926 11.3788 30.3496 11.3309 30.3115 11.2859L29.5487 11.9325ZM28.9929 9.11555C28.8171 9.64245 28.7643 10.1386 28.8649 10.6231C28.9652 11.1059 29.2083 11.5313 29.5488 11.9326L30.3114 11.2858C30.0442 10.9708 29.9008 10.6932 29.844 10.4198C29.7876 10.148 29.8071 9.83472 29.9415 9.43209L28.9929 9.11555ZM32.9431 6.81356C31.0126 6.39626 29.4554 7.72951 28.9929 9.11555L29.9415 9.43208C30.2796 8.41878 31.4067 7.50453 32.7318 7.79099L32.9431 6.81356ZM33.8554 9.53834C34.079 9.06846 34.2276 8.50412 34.1324 7.98596C34.083 7.71767 33.9663 7.45524 33.7554 7.23965C33.5447 7.02417 33.2675 6.88364 32.943 6.81355L32.7319 7.791C32.9 7.82732 32.99 7.88722 33.0405 7.93887C33.091 7.99042 33.1295 8.06184 33.1489 8.16682C33.1908 8.39519 33.1302 8.73505 32.9524 9.10865L33.8554 9.53834ZM32.1987 11.1058C32.5385 11.4726 32.5386 11.4725 32.5387 11.4724C32.5387 11.4724 32.5388 11.4723 32.5389 11.4722C32.539 11.4721 32.5392 11.4719 32.5394 11.4718C32.5397 11.4715 32.5401 11.4711 32.5405 11.4707C32.5414 11.4699 32.5424 11.469 32.5435 11.4679C32.5459 11.4657 32.5488 11.4629 32.5523 11.4596C32.5593 11.4528 32.5686 11.4438 32.5801 11.4323C32.6032 11.4093 32.6349 11.3769 32.6739 11.3349C32.7518 11.2509 32.8589 11.1286 32.9837 10.9679C33.2334 10.6465 33.5547 10.1704 33.8554 9.53829L32.9524 9.1087C32.6866 9.6673 32.4054 10.0823 32.194 10.3545C32.0884 10.4905 32.0004 10.5905 31.9408 10.6547C31.9111 10.6867 31.8885 10.7098 31.8744 10.7239C31.8673 10.7309 31.8624 10.7357 31.8597 10.7382C31.8584 10.7394 31.8577 10.7401 31.8576 10.7403C31.8575 10.7403 31.8576 10.7403 31.8578 10.7401C31.8579 10.7399 31.8581 10.7398 31.8582 10.7396C31.8583 10.7395 31.8584 10.7394 31.8586 10.7393C31.8586 10.7393 31.8587 10.7392 31.8587 10.7392C31.8588 10.7391 31.8589 10.739 32.1987 11.1058ZM35.084 12.5406C34.5785 12.1663 33.5877 11.4629 32.4842 10.6953L31.9132 11.5163C33.0154 12.2829 33.996 12.9793 34.489 13.3443L35.084 12.5406ZM37.0127 16.8229C37.2228 15.9229 37.1147 15.1119 36.7492 14.3855C36.3899 13.6716 35.7973 13.0686 35.084 12.5406L34.489 13.3443C35.131 13.8196 35.5922 14.3109 35.8559 14.835C36.1133 15.3466 36.1972 15.9174 36.0389 16.5956L37.0127 16.8229ZM38.2379 12.935C38.014 14.0318 37.5069 14.8803 37.0517 15.4569C36.8246 15.7447 36.6124 15.9622 36.4592 16.1061C36.3827 16.1779 36.3212 16.2311 36.2803 16.2652C36.2598 16.2823 36.2446 16.2945 36.2352 16.3019C36.2305 16.3056 36.2273 16.3081 36.2256 16.3094C36.2248 16.31 36.2244 16.3104 36.2243 16.3104C36.2243 16.3104 36.2244 16.3103 36.2246 16.3102C36.2247 16.3101 36.2248 16.31 36.2249 16.3099C36.225 16.3099 36.2251 16.3098 36.2252 16.3097C36.2253 16.3096 36.2255 16.3095 36.5258 16.7093C36.8262 17.109 36.8263 17.1089 36.8265 17.1088C36.8265 17.1087 36.8267 17.1086 36.8268 17.1085C36.8271 17.1083 36.8274 17.1081 36.8277 17.1079C36.8283 17.1074 36.829 17.1069 36.8298 17.1063C36.8314 17.105 36.8334 17.1035 36.8359 17.1016C36.8407 17.0979 36.8472 17.0928 36.8552 17.0865C36.8712 17.0739 36.8933 17.0561 36.9207 17.0333C36.9755 16.9876 37.0518 16.9214 37.1436 16.8352C37.3272 16.6629 37.5742 16.4091 37.8367 16.0765C38.3608 15.4124 38.9547 14.4237 39.2177 13.135L38.2379 12.935ZM38.2262 12.6195C38.2262 12.7645 38.2269 12.9038 38.2278 13.0383L39.2278 13.0317C39.2269 12.8981 39.2262 12.7613 39.2262 12.6195H38.2262ZM38.7656 6.90487C38.2657 6.90036 38.2657 6.90038 38.2657 6.90041C38.2657 6.90045 38.2657 6.9005 38.2657 6.90056C38.2657 6.9007 38.2657 6.9009 38.2656 6.90116C38.2656 6.90169 38.2656 6.90249 38.2656 6.90354C38.2656 6.90565 38.2656 6.9088 38.2655 6.91295C38.2655 6.92126 38.2654 6.93361 38.2652 6.94977C38.2649 6.9821 38.2645 7.02968 38.264 7.09071C38.2629 7.21277 38.2613 7.38865 38.2595 7.6039C38.2558 8.0344 38.2509 8.62247 38.2459 9.25269C38.2361 10.5122 38.2262 11.943 38.2262 12.6195H39.2262C39.2262 11.9478 39.2361 10.5213 39.2459 9.26051C39.2508 8.63061 39.2558 8.04282 39.2595 7.61248C39.2613 7.39732 39.2628 7.22153 39.2639 7.09954C39.2645 7.03855 39.2649 6.991 39.2652 6.95871C39.2653 6.94256 39.2654 6.93023 39.2655 6.92193C39.2655 6.91778 39.2656 6.91465 39.2656 6.91255C39.2656 6.9115 39.2656 6.91071 39.2656 6.91018C39.2656 6.90991 39.2656 6.90972 39.2656 6.90958C39.2656 6.90952 39.2656 6.90947 39.2656 6.90944C39.2656 6.9094 39.2656 6.90939 38.7656 6.90487ZM37.5513 7.3751C37.981 7.38507 38.4018 7.39483 38.7516 7.40468L38.7797 6.40507C38.427 6.39514 38.0034 6.38532 37.5745 6.37537L37.5513 7.3751ZM37.5517 7.37511L37.5519 7.37512L37.5739 6.37536L37.5737 6.37535L37.5517 7.37511ZM37.5522 7.37512L37.5523 7.37512L37.5731 6.37534L37.573 6.37534L37.5522 7.37512ZM35.7623 7.32746C36.2281 7.34443 36.9004 7.36001 37.551 7.3751L37.5742 6.37536C36.9208 6.36022 36.2563 6.3448 35.7987 6.32812L35.7623 7.32746ZM36.116 4.35757C35.8835 4.35757 35.708 4.47348 35.6009 4.57017C35.49 4.6703 35.4024 4.79376 35.3343 4.91125C35.1969 5.14811 35.0916 5.44311 35.0296 5.72706C34.9691 6.00437 34.9376 6.32678 34.9942 6.60841C35.0228 6.75051 35.0815 6.92115 35.2077 7.06544C35.3466 7.22422 35.5407 7.31949 35.7625 7.32746L35.7985 6.32811C35.8539 6.3301 35.9186 6.35932 35.9604 6.40708C35.9895 6.44036 35.9834 6.45502 35.9746 6.41129C35.9565 6.32126 35.9602 6.15261 36.0066 5.94036C36.0515 5.73474 36.1247 5.54168 36.1994 5.41286C36.2373 5.34751 36.264 5.31872 36.2711 5.31233C36.282 5.30248 36.2281 5.35757 36.116 5.35757V4.35757ZM37.5398 4.40561C36.9749 4.3821 36.3885 4.35757 36.116 4.35757V5.35757C36.3617 5.35757 36.9192 5.38065 37.4982 5.40474L37.5398 4.40561ZM38.9217 4.45277C38.6761 4.45277 38.1188 4.4297 37.5398 4.40561L37.4982 5.40474C38.063 5.42825 38.6493 5.45277 38.9217 5.45277V4.45277ZM38.5677 1.55817C38.5181 2.0062 38.4819 2.86174 38.4581 3.5853C38.4461 3.9514 38.437 4.29062 38.4309 4.53824C38.4279 4.66209 38.4256 4.76312 38.4241 4.83325C38.4233 4.86832 38.4228 4.89567 38.4224 4.91429C38.4222 4.9236 38.422 4.93073 38.4219 4.93555C38.4219 4.93797 38.4219 4.9398 38.4218 4.94104C38.4218 4.94166 38.4218 4.94213 38.4218 4.94246C38.4218 4.94262 38.4218 4.94274 38.4218 4.94283C38.4218 4.94287 38.4218 4.94291 38.4218 4.94293C38.4218 4.94296 38.4218 4.94297 38.9217 4.95277C39.4216 4.96256 39.4216 4.96256 39.4216 4.96255C39.4216 4.96253 39.4216 4.96251 39.4216 4.96248C39.4216 4.96241 39.4216 4.96231 39.4216 4.96217C39.4216 4.96189 39.4216 4.96146 39.4216 4.96088C39.4217 4.95972 39.4217 4.95797 39.4217 4.95564C39.4218 4.95099 39.422 4.94404 39.4222 4.93491C39.4225 4.91665 39.4231 4.88968 39.4239 4.85501C39.4254 4.78568 39.4276 4.68557 39.4306 4.56274C39.4367 4.31701 39.4457 3.98071 39.4576 3.61818C39.4817 2.88448 39.5171 2.07026 39.5616 1.66833L38.5677 1.55817ZM40.2486 0.565339C39.8829 0.494417 39.4821 0.460417 39.1476 0.624444C38.7543 0.817318 38.6085 1.19316 38.5678 1.55774L39.5616 1.66876C39.5727 1.56942 39.5916 1.5268 39.5984 1.51468C39.601 1.51 39.6007 1.51173 39.5964 1.51586C39.5945 1.51771 39.5924 1.51935 39.5906 1.52064C39.5887 1.52193 39.5877 1.52242 39.5879 1.52229C39.5896 1.52149 39.619 1.50797 39.7022 1.50666C39.7853 1.50535 39.9006 1.51648 40.0582 1.54705L40.2486 0.565339ZM41.7619 0.973851C41.2336 0.76377 40.763 0.665033 40.2485 0.565326L40.0583 1.54706C40.5657 1.64539 40.9573 1.73007 41.3925 1.9031L41.7619 0.973851ZM41.7772 0.979867L41.7609 0.973455L41.3935 1.90349L41.4097 1.90991L41.7772 0.979867ZM42.596 1.94241C42.6317 1.54978 42.3708 1.30779 42.2156 1.19928C42.0552 1.08706 41.8665 1.01515 41.777 0.979817L41.4098 1.90995C41.4613 1.93027 41.5064 1.94821 41.55 1.96835C41.5938 1.98864 41.6238 2.00569 41.6426 2.01881C41.6631 2.03315 41.6527 2.03066 41.636 2.0048C41.6267 1.9902 41.6154 1.96822 41.6078 1.93939C41.5999 1.90988 41.5976 1.8798 41.6001 1.85195L42.596 1.94241ZM41.9558 5.04962C42.4554 5.06985 42.4554 5.06984 42.4554 5.06982C42.4554 5.0698 42.4554 5.06976 42.4554 5.06972C42.4554 5.06964 42.4554 5.06951 42.4554 5.06934C42.4554 5.06899 42.4554 5.06848 42.4555 5.0678C42.4555 5.06643 42.4556 5.06439 42.4557 5.0617C42.4559 5.05631 42.4563 5.0483 42.4567 5.03784C42.4575 5.01691 42.4588 4.98617 42.4604 4.94693C42.4636 4.86844 42.4682 4.75597 42.4738 4.62005C42.485 4.3482 42.5003 3.98267 42.5164 3.60779C42.549 2.84735 42.584 2.07716 42.5961 1.94159L41.6 1.85276C41.5853 2.0184 41.5491 2.82444 41.5173 3.56491C41.5012 3.9405 41.4859 4.3066 41.4747 4.57877C41.469 4.71487 41.4644 4.8275 41.4612 4.90612C41.4596 4.94543 41.4584 4.97624 41.4575 4.99722C41.4571 5.00772 41.4568 5.01575 41.4565 5.02117C41.4564 5.02388 41.4563 5.02594 41.4563 5.02731C41.4563 5.028 41.4562 5.02852 41.4562 5.02887C41.4562 5.02905 41.4562 5.02918 41.4562 5.02927C41.4562 5.02931 41.4562 5.02935 41.4562 5.02937C41.4562 5.02939 41.4562 5.0294 41.9558 5.04962ZM43.7152 4.64909C43.4963 4.64444 43.0698 4.62035 42.6879 4.59659C42.4992 4.58484 42.3247 4.5734 42.1974 4.56488C42.1338 4.56063 42.082 4.55711 42.0461 4.55466C42.0282 4.55343 42.0142 4.55247 42.0048 4.55182C42.0001 4.55149 41.9965 4.55125 41.9941 4.55108C41.9929 4.551 41.992 4.55093 41.9914 4.55089C41.9911 4.55087 41.9908 4.55086 41.9907 4.55084C41.9906 4.55084 41.9906 4.55084 41.9905 4.55083C41.9905 4.55083 41.9905 4.55083 41.9905 4.55083C41.9905 4.55083 41.9905 4.55083 41.9558 5.04962C41.9211 5.54842 41.9211 5.54842 41.9211 5.54842C41.9211 5.54842 41.9211 5.54842 41.9211 5.54842C41.9212 5.54843 41.9213 5.54843 41.9213 5.54844C41.9215 5.54845 41.9218 5.54847 41.9221 5.54849C41.9227 5.54853 41.9237 5.5486 41.9249 5.54868C41.9274 5.54886 41.9311 5.54911 41.9359 5.54945C41.9456 5.55011 41.9597 5.55108 41.9779 5.55233C42.0142 5.55481 42.0665 5.55836 42.1307 5.56266C42.2591 5.57124 42.4351 5.58279 42.6258 5.59466C43.0029 5.61812 43.4508 5.6437 43.694 5.64886L43.7152 4.64909ZM46.0243 4.84503C45.9427 4.81209 45.8496 4.79546 45.7928 4.7861C45.722 4.77446 45.6393 4.76405 45.5517 4.75465C45.3756 4.73575 45.1589 4.71877 44.9358 4.70425C44.4896 4.6752 43.998 4.65473 43.7146 4.64907L43.6947 5.64887C43.9609 5.65419 44.4374 5.67392 44.8709 5.70214C45.0877 5.71626 45.2888 5.73218 45.445 5.74894C45.5235 5.75736 45.5856 5.76547 45.6304 5.77283C45.6891 5.78249 45.6822 5.78537 45.6497 5.77224L46.0243 4.84503ZM45.4703 7.41809C45.6634 7.40883 45.8148 7.32178 45.9169 7.23876C46.0199 7.15499 46.1011 7.0529 46.1641 6.95629C46.2902 6.76285 46.3851 6.52621 46.4449 6.29881C46.5041 6.07353 46.5395 5.81608 46.5148 5.57937C46.4934 5.37337 46.4015 4.99762 46.0245 4.84513L45.6495 5.77214C45.4889 5.70719 45.5089 5.57397 45.5202 5.68312C45.5284 5.76157 45.5178 5.89191 45.4777 6.04474C45.4381 6.19544 45.3805 6.32723 45.3264 6.41019C45.2993 6.45178 45.2835 6.46489 45.2858 6.46303C45.2872 6.46191 45.3342 6.42347 45.4225 6.41924L45.4703 7.41809ZM43.925 7.44913C44.3753 7.44849 44.8512 7.44786 45.4704 7.41809L45.4224 6.41924C44.8284 6.4478 44.3728 6.4485 43.9236 6.44913L43.925 7.44913ZM43.419 7.45137C43.5888 7.44961 43.7545 7.44938 43.925 7.44913L43.9236 6.44913C43.7537 6.44938 43.5837 6.44961 43.4087 6.45142L43.419 7.45137ZM41.9116 6.97415C41.9196 7.47409 41.9196 7.47409 41.9196 7.47409C41.9196 7.47409 41.9196 7.47409 41.9196 7.47409C41.9197 7.47409 41.9197 7.47409 41.9198 7.47409C41.92 7.47408 41.9202 7.47408 41.9205 7.47408C41.9211 7.47407 41.922 7.47405 41.9232 7.47403C41.9256 7.47399 41.9291 7.47394 41.9338 7.47386C41.943 7.47372 41.9567 7.4735 41.9741 7.47322C42.009 7.47267 42.0591 7.47187 42.12 7.47091C42.2417 7.46898 42.4066 7.46639 42.5791 7.46371C42.9249 7.45834 43.2989 7.45268 43.4193 7.45136L43.4084 6.45142C43.2851 6.45277 42.908 6.45848 42.5636 6.46383C42.391 6.46651 42.226 6.46911 42.1042 6.47103C42.0432 6.472 41.9931 6.47279 41.9582 6.47335C41.9408 6.47363 41.9271 6.47384 41.9178 6.47399C41.9132 6.47406 41.9096 6.47412 41.9072 6.47416C41.906 6.47418 41.9051 6.47419 41.9045 6.4742C41.9042 6.47421 41.904 6.47421 41.9038 6.47421C41.9038 6.47421 41.9037 6.47422 41.9037 6.47422C41.9037 6.47422 41.9036 6.47422 41.9036 6.47422C41.9036 6.47422 41.9036 6.47422 41.9116 6.97415ZM42.1794 14.7007C42.1794 11.6939 42.3777 7.41223 42.41 7.01458L41.4132 6.93373C41.3783 7.3641 41.1794 11.6734 41.1794 14.7007H42.1794ZM42.8174 17.5284C42.8629 17.5284 42.6953 17.5501 42.4963 17.034C42.3153 16.5646 42.1794 15.8007 42.1794 14.7007H41.1794C41.1794 15.8656 41.321 16.7656 41.5633 17.3938C41.7875 17.9753 42.189 18.5284 42.8174 18.5284V17.5284ZM44.8143 14.5309C44.6903 15.2438 44.3487 16.0282 43.9242 16.6281C43.7127 16.9269 43.4924 17.1631 43.2858 17.3198C43.074 17.4803 42.9159 17.5284 42.8174 17.5284V18.5284C43.2169 18.5284 43.5846 18.3481 43.8899 18.1167C44.2003 17.8813 44.4885 17.5617 44.7404 17.2058C45.2427 16.496 45.6478 15.5745 45.7995 14.7023L44.8143 14.5309ZM44.9264 12.7589C44.8404 13.4175 44.802 14.0379 44.807 14.6209L45.8069 14.6123C45.8024 14.0792 45.8375 13.5051 45.918 12.8884L44.9264 12.7589ZM46.565 8.41629C45.819 9.38649 45.2257 10.4664 44.9264 12.7589L45.918 12.8884C46.1948 10.7676 46.721 9.85395 47.3578 9.02587L46.565 8.41629ZM50.8809 6.89759C49.3534 6.47136 47.7535 6.87069 46.565 8.41631L47.3578 9.02586C48.2899 7.8136 49.4651 7.54075 50.6121 7.8608L50.8809 6.89759ZM52.8671 8.39942C52.3381 7.61796 51.4936 7.06821 50.8806 6.89752L50.6124 7.86087C50.9922 7.96663 51.6402 8.37084 52.039 8.96001L52.8671 8.39942ZM51.9531 8.18546V8.67971H52.9531V8.18546H51.9531ZM53.0002 7.16084C52.696 7.18199 52.4415 7.32014 52.2642 7.49561C52.0971 7.66095 51.9531 7.90707 51.9531 8.18546H52.9531C52.9531 8.22263 52.9436 8.23894 52.9459 8.23417C52.9474 8.23107 52.9537 8.22009 52.9675 8.20643C52.9957 8.17856 53.0322 8.16103 53.0696 8.15843L53.0002 7.16084ZM54.1278 7.26906C53.709 7.17803 53.3216 7.13836 53 7.16085L53.0698 8.15842C53.266 8.14469 53.5531 8.16749 53.9154 8.24625L54.1278 7.26906ZM55.7036 8.48747C55.6995 8.2123 55.567 8.00055 55.4249 7.85635C55.2869 7.71622 55.1179 7.61556 54.9674 7.54295C54.6653 7.39724 54.3251 7.31209 54.1282 7.26914L53.9151 8.24617C54.0914 8.28462 54.339 8.35008 54.5329 8.44365C54.6304 8.49067 54.6866 8.53183 54.7125 8.55811C54.7344 8.58032 54.7046 8.55958 54.7037 8.50247L55.7036 8.48747ZM55.6902 8.93331C55.698 8.7321 55.7047 8.56539 55.7036 8.48812L54.7037 8.50182C54.7043 8.54488 54.6996 8.67244 54.6909 8.89453L55.6902 8.93331ZM55.6903 8.9288L55.6904 8.92841L54.6908 8.89943L54.6908 8.89983L55.6903 8.9288ZM55.6532 10.0908C55.6634 9.62528 55.679 9.22162 55.6902 8.9337L54.6909 8.89493C54.6797 9.18305 54.6638 9.59415 54.6534 10.069L55.6532 10.0908ZM55.6146 11.4016C55.6286 10.9883 55.6427 10.572 55.6532 10.0908L54.6534 10.0691C54.6431 10.5434 54.6292 10.9542 54.6152 11.3678L55.6146 11.4016ZM55.6149 11.3847V11.3847H54.6149V11.3847H55.6149ZM55.6149 11.3848V11.3847H54.6149V11.3848H55.6149ZM55.6149 11.3849V11.3848H54.6149V11.3849H55.6149ZM55.6149 11.385V11.3849H54.6149V11.385H55.6149ZM55.6144 11.4088L55.6144 11.4085L54.6155 11.3615L54.6155 11.3618L55.6144 11.4088ZM55.56 14.3073C55.56 13.018 55.5872 12.2127 55.6146 11.4022L54.6152 11.3684C54.5877 12.1823 54.56 13.0009 54.56 14.3073H55.56ZM56.4465 17.8999C56.2967 17.8999 56.2098 17.8698 56.1459 17.8245C56.0781 17.7765 55.9824 17.6731 55.8875 17.4306C55.6888 16.9229 55.56 15.9842 55.56 14.3073H54.56C54.56 15.9883 54.6826 17.0959 54.9562 17.795C55.0975 18.1559 55.2931 18.446 55.5681 18.6407C55.8471 18.8382 56.1545 18.8999 56.4465 18.8999V17.8999ZM57.4729 16.2738C57.3781 16.7141 57.1952 17.1554 56.9732 17.4742C56.7345 17.8171 56.5393 17.8999 56.4465 17.8999V18.8999C57.0449 18.8999 57.501 18.4662 57.7939 18.0456C58.1036 17.6008 58.3326 17.0317 58.4505 16.4842L57.4729 16.2738ZM57.3852 12.7911C57.2372 14.2021 57.2615 15.4263 57.4714 16.4769L58.452 16.2811C58.2677 15.3583 58.2387 14.2407 58.3798 12.8954L57.3852 12.7911ZM59.0237 8.41846C58.1222 9.60414 57.5481 11.239 57.3852 12.7911L58.3798 12.8955C58.5272 11.4903 59.0486 10.038 59.8198 9.0237L59.0237 8.41846ZM63.3412 6.89759C61.816 6.47199 60.206 6.86347 59.0237 8.41846L59.8197 9.02371C60.7424 7.81019 61.9232 7.54011 63.0724 7.8608L63.3412 6.89759ZM65.3274 8.39942C64.7984 7.61796 63.954 7.06821 63.3409 6.89752L63.0727 7.86087C63.4525 7.96663 64.1005 8.37084 64.4993 8.96001L65.3274 8.39942ZM64.4118 8.24537C64.4125 8.2684 64.4129 8.37145 64.4132 8.48012C64.4133 8.53194 64.4133 8.58186 64.4134 8.61885C64.4134 8.63734 64.4134 8.65258 64.4134 8.66318C64.4134 8.66849 64.4134 8.67263 64.4134 8.67544C64.4134 8.67685 64.4134 8.67792 64.4134 8.67864C64.4134 8.679 64.4134 8.67927 64.4134 8.67945C64.4134 8.67954 64.4134 8.67961 64.4134 8.67965C64.4134 8.67968 64.4134 8.67969 64.4134 8.6797C64.4134 8.67971 64.4134 8.67971 64.4134 8.67971C64.4134 8.67971 64.4134 8.67971 64.9134 8.67971C65.4134 8.67971 65.4134 8.67971 65.4134 8.67971C65.4134 8.6797 65.4134 8.6797 65.4134 8.67969C65.4134 8.67968 65.4134 8.67966 65.4134 8.67964C65.4134 8.67959 65.4134 8.67951 65.4134 8.67942C65.4134 8.67923 65.4134 8.67894 65.4134 8.67857C65.4134 8.67783 65.4134 8.67673 65.4134 8.67529C65.4134 8.67243 65.4134 8.66823 65.4134 8.66286C65.4134 8.65213 65.4134 8.63676 65.4134 8.61811C65.4133 8.58084 65.4133 8.53043 65.4132 8.478C65.413 8.37818 65.4125 8.25702 65.4114 8.21725L64.4118 8.24537ZM65.8432 7.16013C65.4757 7.13329 65.1292 7.20756 64.8601 7.39356C64.585 7.58368 64.4023 7.88838 64.4118 8.24459L65.4114 8.21803C65.4121 8.24164 65.3949 8.23949 65.4286 8.2162C65.4683 8.18879 65.5738 8.14312 65.7704 8.15748L65.8432 7.16013ZM67.2227 7.45073C66.811 7.29835 66.3336 7.19586 65.8431 7.16013L65.7705 8.15748C66.174 8.18688 66.5583 8.27112 66.8755 8.38854L67.2227 7.45073ZM68.1643 8.50383C68.1598 8.21761 68.0574 7.96856 67.8389 7.77716C67.6597 7.62012 67.4248 7.52552 67.2226 7.45071L66.8756 8.38856C66.973 8.4246 67.0439 8.45376 67.0975 8.48018C67.1512 8.50666 67.1733 8.52353 67.1799 8.52934C67.1829 8.53195 67.1737 8.52388 67.1663 8.50714C67.1598 8.49235 67.164 8.49133 67.1644 8.51934L68.1643 8.50383ZM68.151 8.93734C68.1587 8.74325 68.1653 8.58172 68.1643 8.50473L67.1644 8.51843C67.165 8.56061 67.1603 8.68251 67.1518 8.89758L68.151 8.93734ZM68.1511 8.93271L68.1512 8.93232L67.1516 8.9026L67.1516 8.90298L68.1511 8.93271ZM68.1135 10.0909C68.1238 9.62179 68.1397 9.22125 68.151 8.93773L67.1518 8.89796C67.1405 9.18181 67.1242 9.59017 67.1137 10.069L68.1135 10.0909ZM68.0636 16.1602C68.0537 13.2283 68.0952 10.9212 68.1135 10.0909L67.1137 10.0689C67.0953 10.9054 67.0537 13.2212 67.0636 16.1635L68.0636 16.1602ZM68.0671 16.7792C68.0655 16.5724 68.0643 16.3656 68.0636 16.1601L67.0636 16.1636C67.0643 16.3708 67.0656 16.579 67.0671 16.7869L68.0671 16.7792ZM68.354 14.7312C67.9151 15.4363 67.5901 15.9409 67.173 16.4754L67.9613 17.0907C68.4133 16.5114 68.7618 15.9684 69.203 15.2597L68.354 14.7312ZM70.2337 10.3407C69.9234 11.6759 69.1517 13.4502 68.3541 14.7311L69.2029 15.2597C70.0486 13.9017 70.8686 12.0263 71.2077 10.5671L70.2337 10.3407ZM69.3963 8.70582C69.2921 9.44708 69.5667 10.0028 69.8594 10.3595C70.0036 10.5353 70.1531 10.6647 70.267 10.7508C70.3244 10.7942 70.3739 10.8275 70.411 10.851C70.4296 10.8627 70.4451 10.8721 70.4571 10.8791C70.4631 10.8826 70.4682 10.8855 70.4723 10.8879C70.4744 10.889 70.4763 10.8901 70.4779 10.891C70.4786 10.8914 70.4794 10.8918 70.4801 10.8922C70.4804 10.8924 70.4807 10.8925 70.481 10.8927C70.4812 10.8928 70.4814 10.8929 70.4815 10.8929C70.4817 10.8931 70.4819 10.8932 70.7207 10.4539C70.9595 10.0146 70.9597 10.0147 70.9599 10.0148C70.96 10.0149 70.9602 10.015 70.9603 10.015C70.9605 10.0152 70.9608 10.0153 70.961 10.0154C70.9614 10.0156 70.9618 10.0159 70.9621 10.016C70.9628 10.0164 70.9632 10.0166 70.9634 10.0167C70.9638 10.017 70.9634 10.0167 70.9622 10.016C70.9597 10.0146 70.9542 10.0113 70.946 10.0061C70.9296 9.99573 70.9031 9.97807 70.8701 9.95319C70.8035 9.9028 70.7156 9.82649 70.6325 9.72517C70.4705 9.52783 70.3305 9.24426 70.3866 8.845L69.3963 8.70582ZM70.3228 6.94011C69.8434 7.35533 69.5148 7.8632 69.3963 8.70576L70.3866 8.84506C70.4702 8.2502 70.6743 7.95862 70.9775 7.696L70.3228 6.94011ZM73.6356 8.44517C73.7026 7.90565 73.6034 7.44176 73.3349 7.08611C73.0701 6.73547 72.6905 6.55591 72.3228 6.48136C71.9565 6.4071 71.5715 6.4293 71.2332 6.50815C70.9003 6.58576 70.5664 6.7292 70.3229 6.94009L70.9775 7.69602C71.0617 7.62307 71.2305 7.5356 71.4602 7.48205C71.6846 7.42974 71.9224 7.42053 72.1241 7.46142C72.3244 7.50203 72.4579 7.58419 72.5368 7.68864C72.6119 7.78809 72.6866 7.97267 72.6432 8.32181L73.6356 8.44517ZM73.0461 8.91463C73.5292 9.04345 73.5292 9.0434 73.5292 9.04334C73.5292 9.04332 73.5292 9.04326 73.5292 9.04322C73.5293 9.04314 73.5293 9.04306 73.5293 9.04297C73.5294 9.0428 73.5294 9.04262 73.5295 9.04242C73.5296 9.04203 73.5297 9.0416 73.5298 9.04111C73.5301 9.04014 73.5304 9.03898 73.5307 9.03763C73.5314 9.03494 73.5323 9.03149 73.5333 9.0273C73.5354 9.01892 73.5382 9.00757 73.5415 8.99335C73.5482 8.96491 73.5571 8.92493 73.5672 8.87415C73.5875 8.77261 73.6129 8.62766 73.6356 8.44507L72.6432 8.32191C72.6238 8.47825 72.6025 8.59886 72.5866 8.67817C72.5787 8.7178 72.5722 8.74707 72.5679 8.76525C72.5658 8.77435 72.5642 8.78067 72.5634 8.78412C72.5629 8.78585 72.5627 8.78686 72.5626 8.78715C72.5625 8.78729 72.5626 8.78725 72.5626 8.78703C72.5626 8.78692 72.5627 8.78676 72.5627 8.78656C72.5628 8.78646 72.5628 8.78634 72.5628 8.78622C72.5628 8.78616 72.5629 8.78609 72.5629 8.78602C72.5629 8.78599 72.5629 8.78594 72.5629 8.78592C72.5629 8.78587 72.5629 8.78581 73.0461 8.91463ZM75.3655 8.01086C74.7345 8.15003 73.8206 8.30194 72.9771 8.41941L73.115 9.40985C73.9703 9.29075 74.9133 9.13464 75.5809 8.98739L75.3655 8.01086ZM77.6826 8.4405C77.2066 7.92929 76.3471 7.79459 75.3656 8.01084L75.5808 8.98741C76.4226 8.80194 76.8314 8.99386 76.9507 9.12195L77.6826 8.4405ZM78.0986 10.2998C78.1883 9.90843 78.2087 9.56053 78.1316 9.23843C78.0527 8.90883 77.8837 8.65659 77.6826 8.44053L76.9507 9.12192C77.074 9.25442 77.132 9.35829 77.1591 9.47132C77.1879 9.59185 77.1934 9.77309 77.1239 10.0763L78.0986 10.2998ZM77.9021 11.1343C77.9652 10.8702 78.0314 10.5932 78.0986 10.2998L77.1239 10.0764C77.0578 10.3647 76.9927 10.6374 76.9295 10.902L77.9021 11.1343ZM77.9015 11.1367L77.902 11.1348L76.9296 10.9015L76.9291 10.9034L77.9015 11.1367ZM77.901 11.139L77.9011 11.1383L76.9295 10.9018L76.9293 10.9026L77.901 11.139ZM77.8985 11.1486L77.8986 11.1483L76.9317 10.8933L76.9316 10.8936L77.8985 11.1486ZM77.3448 14.5647C77.385 13.3041 77.6106 12.3543 77.9014 11.1373L76.9288 10.9049C76.6388 12.1188 76.3891 13.1589 76.3453 14.5329L77.3448 14.5647ZM78.3539 17.8999C78.1967 17.8999 77.9296 17.7835 77.6877 17.1984C77.4528 16.6302 77.3074 15.7456 77.3448 14.5647L76.3453 14.533C76.3054 15.7923 76.4546 16.8332 76.7636 17.5805C77.0655 18.3109 77.5915 18.8999 78.3539 18.8999V17.8999ZM79.3919 16.4953C79.0982 17.6889 78.6318 17.8999 78.3539 17.8999V18.8999C79.3429 18.8999 80.0334 18.0732 80.3629 16.7342L79.3919 16.4953ZM79.2203 12.8018C79.0704 14.1543 79.1172 15.5391 79.3901 16.7267L80.3647 16.5028C80.1219 15.4459 80.074 14.1768 80.2142 12.912L79.2203 12.8018ZM80.8585 8.41842C79.9602 9.59974 79.4274 10.9342 79.2203 12.8018L80.2142 12.912C80.4041 11.1997 80.8798 10.0424 81.6545 9.02374L80.8585 8.41842ZM85.176 6.89761C83.6507 6.47179 82.0408 6.8635 80.8585 8.41846L81.6545 9.02371C82.5772 7.81016 83.758 7.53998 84.9071 7.86078L85.176 6.89761ZM87.1622 8.39942C86.6332 7.61796 85.7887 7.06821 85.1757 6.89752L84.9074 7.86087C85.2873 7.96663 85.9353 8.37084 86.3341 8.96001L87.1622 8.39942ZM86.2462 8.2044C86.2462 8.28774 86.2467 8.40767 86.2472 8.50601C86.2474 8.55534 86.2477 8.59952 86.2479 8.63137C86.248 8.64729 86.248 8.66014 86.2481 8.66902C86.2481 8.67345 86.2481 8.6769 86.2481 8.67924C86.2481 8.68041 86.2482 8.6813 86.2482 8.6819C86.2482 8.6822 86.2482 8.68243 86.2482 8.68259C86.2482 8.68266 86.2482 8.68272 86.2482 8.68276C86.2482 8.68278 86.2482 8.6828 86.2482 8.68281C86.2482 8.68281 86.2482 8.68282 86.2482 8.68282C86.2482 8.68282 86.2482 8.68283 86.7482 8.67971C87.2481 8.6766 87.2481 8.6766 87.2481 8.6766C87.2481 8.6766 87.2481 8.6766 87.2481 8.67659C87.2481 8.67658 87.2481 8.67657 87.2481 8.67655C87.2481 8.67652 87.2481 8.67646 87.2481 8.67639C87.2481 8.67624 87.2481 8.67602 87.2481 8.67573C87.2481 8.67515 87.2481 8.67427 87.2481 8.67312C87.2481 8.67082 87.2481 8.66741 87.2481 8.66302C87.248 8.65422 87.2479 8.64147 87.2478 8.62564C87.2477 8.59399 87.2474 8.55009 87.2472 8.50108C87.2467 8.40276 87.2462 8.28503 87.2462 8.2044H86.2462ZM87.3346 7.15835C86.7937 7.18729 86.2462 7.5558 86.2462 8.2044H87.2462C87.2462 8.19879 87.2471 8.19916 87.2458 8.20201C87.2447 8.20446 87.2445 8.20296 87.2498 8.19835C87.2608 8.18856 87.3016 8.16155 87.388 8.15693L87.3346 7.15835ZM88.4232 7.26912C88.0201 7.18127 87.6473 7.14161 87.3345 7.15836L87.388 8.15693C87.5842 8.14642 87.8633 8.17056 88.2102 8.24619L88.4232 7.26912ZM89.9987 8.48731C89.9946 8.21213 89.862 8.00039 89.72 7.85618C89.5819 7.71604 89.413 7.6154 89.2625 7.54279C88.9603 7.39709 88.6201 7.31199 88.423 7.26909L88.2104 8.24622C88.3866 8.28456 88.6341 8.34998 88.8281 8.44352C88.9255 8.49053 88.9817 8.53168 89.0076 8.55795C89.0295 8.58015 88.9997 8.55942 88.9988 8.5023L89.9987 8.48731ZM89.9853 8.93235C89.9931 8.73167 89.9998 8.56524 89.9987 8.48796L88.9988 8.50165C88.9994 8.54466 88.9946 8.67185 88.986 8.89346L89.9853 8.93235ZM89.9856 8.91318V8.9129H88.9856V8.91318H89.9856ZM89.9856 8.91345V8.91318H88.9856V8.91345H89.9856ZM89.9856 8.91374V8.91345H88.9856V8.91374H89.9856ZM89.9856 8.91404V8.91374H88.9856V8.91404H89.9856ZM89.9856 8.9142V8.91404H88.9856V8.9142H89.9856ZM89.9847 8.94552L89.9847 8.94515L88.9866 8.88325L88.9866 8.88362L89.9847 8.94552ZM89.9852 8.9346L89.9853 8.93339L88.986 8.89575L88.9859 8.89697L89.9852 8.9346ZM89.9483 10.0907C89.9584 9.62596 89.974 9.22297 89.9852 8.93515L88.9859 8.89641C88.9748 9.18443 88.9589 9.59485 88.9485 10.0688L89.9483 10.0907ZM89.9097 11.4022C89.9237 10.9887 89.9378 10.5721 89.9483 10.0906L88.9485 10.0689C88.9382 10.5436 88.9243 10.9545 88.9103 11.3684L89.9097 11.4022ZM89.8551 14.3073C89.8551 13.018 89.8823 12.2128 89.9097 11.4022L88.9103 11.3684C88.8828 12.1823 88.8551 13.0009 88.8551 14.3073H89.8551ZM90.6557 17.8999C90.5055 17.8999 90.4296 17.8697 90.3778 17.8312C90.3206 17.7887 90.2324 17.6907 90.1451 17.4452C89.9626 16.9324 89.8551 15.9894 89.8551 14.3073H88.8551C88.8551 15.9831 88.956 17.0864 89.2029 17.7804C89.3303 18.1384 89.512 18.4338 89.7815 18.634C90.0565 18.8382 90.364 18.8999 90.6557 18.8999V17.8999ZM92.1093 15.253C91.9933 15.8528 91.7453 16.5628 91.4313 17.1108C91.274 17.3851 91.1125 17.5972 90.9609 17.7346C90.8066 17.8745 90.7051 17.8999 90.6557 17.8999V18.8999C91.0476 18.8999 91.3786 18.7056 91.6324 18.4756C91.8891 18.243 92.1116 17.9348 92.2989 17.608C92.6739 16.9536 92.9568 16.1376 93.0911 15.4429L92.1093 15.253ZM92.0995 14.9502C92.0995 15.0731 92.0996 15.2072 92.1002 15.3498L93.1002 15.3461C93.0996 15.205 93.0995 15.0722 93.0995 14.9502H92.0995ZM92.1684 8.21182C92.1558 8.98987 92.0995 12.4464 92.0995 14.9502H93.0995C93.0995 12.456 93.1556 9.00765 93.1683 8.22811L92.1684 8.21182ZM92.1709 8.05215L92.1684 8.21209L93.1683 8.22783L93.1708 8.06789L92.1709 8.05215ZM93.2341 6.97605C92.9255 6.97605 92.6113 7.059 92.3963 7.32099C92.1993 7.56103 92.1709 7.85391 92.1709 8.06002H93.1709C93.1709 7.99741 93.1762 7.96082 93.1808 7.94205C93.1849 7.9253 93.1852 7.93599 93.1694 7.95529C93.1617 7.96472 93.1527 7.97289 93.1438 7.97911C93.1352 7.98517 93.1297 7.98715 93.1304 7.9869C93.1334 7.98577 93.1625 7.97605 93.2341 7.97605V6.97605ZM95.0347 7.31295C94.8058 7.2506 94.4699 7.16826 94.1422 7.1011C93.8292 7.03695 93.4749 6.97605 93.2341 6.97605V7.97605C93.3601 7.97605 93.6211 8.01509 93.9414 8.08073C94.247 8.14336 94.5622 8.22068 94.7719 8.27779L95.0347 7.31295ZM95.8216 8.41479C95.8253 7.65262 95.2455 7.37085 95.0357 7.31322L94.7709 8.27751C94.7555 8.2733 94.7567 8.27204 94.7665 8.27749C94.7748 8.28211 94.7835 8.28845 94.7908 8.29596C94.7972 8.30259 94.8034 8.31088 94.8085 8.32338C94.8135 8.33545 94.8219 8.36179 94.8216 8.41001L95.8216 8.41479ZM95.3115 12.68C95.8115 12.6808 95.8115 12.6808 95.8115 12.6808C95.8115 12.6808 95.8115 12.6807 95.8115 12.6807C95.8115 12.6806 95.8115 12.6804 95.8115 12.6803C95.8115 12.6799 95.8115 12.6793 95.8115 12.6786C95.8115 12.6771 95.8115 12.6749 95.8116 12.6719C95.8116 12.666 95.8116 12.6573 95.8116 12.6458C95.8116 12.6229 95.8117 12.5891 95.8118 12.5456C95.8119 12.4587 95.8122 12.3333 95.8124 12.1791C95.813 11.8707 95.8138 11.4474 95.8148 10.9873C95.8167 10.067 95.8192 9.00065 95.8216 8.41444L94.8216 8.41037C94.8192 8.99774 94.8167 10.0651 94.8148 10.9852C94.8138 11.4454 94.813 11.8688 94.8124 12.1773C94.8122 12.3315 94.8119 12.4569 94.8118 12.5438C94.8117 12.5873 94.8116 12.6211 94.8116 12.6441C94.8116 12.6555 94.8116 12.6643 94.8116 12.6702C94.8115 12.6731 94.8115 12.6754 94.8115 12.6768C94.8115 12.6776 94.8115 12.6782 94.8115 12.6785C94.8115 12.6787 94.8115 12.6789 94.8115 12.679C94.8115 12.679 94.8115 12.679 94.8115 12.6791C94.8115 12.6791 94.8115 12.6791 95.3115 12.68ZM95.5202 10.5925C95.32 11.1648 95.1501 11.6446 95.0303 11.9812C94.9705 12.1494 94.9231 12.2819 94.8908 12.3722C94.8746 12.4174 94.8621 12.452 94.8538 12.4753C94.8496 12.487 94.8464 12.4958 94.8443 12.5017C94.8432 12.5047 94.8424 12.5069 94.8419 12.5083C94.8416 12.5091 94.8414 12.5096 94.8413 12.51C94.8413 12.5102 94.8412 12.5103 94.8412 12.5104C94.8412 12.5104 94.8411 12.5105 94.8411 12.5105C94.8411 12.5105 94.8411 12.5105 94.8411 12.5105C94.8411 12.5105 94.8411 12.5105 95.3115 12.68C95.7819 12.8494 95.7819 12.8494 95.782 12.8494C95.782 12.8494 95.782 12.8494 95.782 12.8494C95.782 12.8493 95.782 12.8493 95.782 12.8492C95.782 12.8491 95.7821 12.849 95.7822 12.8488C95.7823 12.8484 95.7825 12.8478 95.7828 12.8471C95.7833 12.8455 95.7842 12.8432 95.7853 12.8402C95.7874 12.8342 95.7906 12.8252 95.7949 12.8134C95.8034 12.7898 95.8159 12.7549 95.8322 12.7094C95.8648 12.6185 95.9123 12.4854 95.9725 12.3164C96.0927 11.9785 96.2632 11.497 96.4641 10.9227L95.5202 10.5925ZM97.0045 7.37427C96.7362 7.66356 96.4867 8.14287 96.2549 8.67215C96.0154 9.21901 95.7683 9.88353 95.5202 10.5925L96.4641 10.9227C96.7097 10.2208 96.9469 9.58481 97.1709 9.0733C97.4026 8.54421 97.5958 8.20729 97.7377 8.05432L97.0045 7.37427ZM99.8477 7.45512C99.5773 7.29462 99.083 7.09639 98.5841 7.00816C98.3322 6.96362 98.0517 6.942 97.7831 6.9822C97.5136 7.02251 97.2164 7.13192 96.9949 7.38492L97.7473 8.04366C97.7625 8.02628 97.8072 7.98972 97.931 7.97119C98.0556 7.95256 98.2197 7.95925 98.4099 7.99288C98.795 8.06098 99.1747 8.21853 99.3373 8.31505L99.8477 7.45512ZM100.892 9.32972C100.89 9.01325 100.854 8.66539 100.692 8.32815C100.526 7.98246 100.25 7.69407 99.8477 7.4551L99.3373 8.31506C99.6021 8.47217 99.7244 8.62371 99.7903 8.76101C99.8603 8.90677 99.8903 9.08499 99.8921 9.33687L100.892 9.32972ZM101.135 14.1267C101.053 13.335 100.911 11.9647 100.892 9.32966L99.8921 9.33694C99.9116 12.0128 100.057 13.4165 100.141 14.2296L101.135 14.1267ZM101.158 14.3459C101.151 14.2774 101.143 14.2042 101.135 14.1266L100.141 14.2297C100.149 14.3076 100.156 14.379 100.163 14.4454L101.158 14.3459ZM100.246 14.3893C100.257 14.3017 100.299 14.1895 100.402 14.1007C100.514 14.0049 100.682 13.9547 100.852 14.0081C101.009 14.0569 101.087 14.1663 101.118 14.2249C101.151 14.2859 101.157 14.3339 101.158 14.3468L100.163 14.4445C100.17 14.5151 100.188 14.6051 100.236 14.695C100.282 14.7825 100.38 14.908 100.554 14.9625C100.743 15.0216 100.929 14.9668 101.054 14.8589C101.172 14.7579 101.224 14.626 101.238 14.5136L100.246 14.3893ZM102.216 7.99859C100.896 10.9926 100.373 13.3843 100.246 14.3891L101.238 14.5139C101.352 13.6137 101.847 11.3154 103.131 8.4019L102.216 7.99859ZM104.851 7.21664C104.554 7.11519 104.067 6.94155 103.582 6.97394C103.324 6.99113 103.053 7.0658 102.804 7.24204C102.555 7.41773 102.36 7.67208 102.216 7.9986L103.131 8.40188C103.217 8.20742 103.308 8.11032 103.381 8.05868C103.453 8.00759 103.539 7.97904 103.648 7.97172C103.897 7.95508 104.189 8.04722 104.528 8.16302L104.851 7.21664ZM104.858 7.21884L104.851 7.21664L104.528 8.16301L104.535 8.16522L104.858 7.21884ZM106.798 9.25705C106.816 8.92626 106.777 8.5208 106.443 8.1303C106.136 7.77205 105.626 7.48129 104.858 7.21886L104.534 8.1652C105.245 8.40799 105.551 8.62636 105.683 8.78056C105.788 8.9025 105.81 9.01281 105.799 9.20055L106.798 9.25705ZM106.747 15.6268C106.638 14.2829 106.655 11.7729 106.798 9.25718L105.799 9.20041C105.655 11.732 105.636 14.2957 105.751 15.708L106.747 15.6268ZM107.566 17.7954C107.524 17.7954 107.365 17.7678 107.17 17.403C106.98 17.0481 106.816 16.4662 106.747 15.6268L105.751 15.708C105.825 16.6212 106.01 17.3533 106.288 17.8743C106.561 18.3853 106.989 18.7954 107.566 18.7954V17.7954ZM108.469 16.0156C108.268 16.8873 108.076 17.3485 107.908 17.5856C107.829 17.696 107.767 17.7413 107.727 17.7623C107.689 17.7824 107.641 17.7954 107.566 17.7954V18.7954C107.767 18.7954 107.98 18.7584 108.191 18.6485C108.399 18.5394 108.574 18.3744 108.723 18.1641C109.01 17.7596 109.237 17.1372 109.444 16.2406L108.469 16.0156ZM86.2212 13.7407C86.1551 15.0839 85.8397 16.1108 85.4669 16.8142L86.3504 17.2825C86.8001 16.4342 87.1475 15.2611 87.22 13.7899L86.2212 13.7407ZM84.944 9.74779C85.3359 9.78239 85.6733 10.019 85.9187 10.6576C86.173 11.319 86.2902 12.3376 86.2212 13.7408L87.22 13.7899C87.2915 12.3355 87.1804 11.1527 86.8521 10.2988C86.5151 9.42208 85.916 8.82971 85.032 8.75167L84.944 9.74779ZM83.1266 12.155C83.2592 11.3625 83.5037 10.717 83.8272 10.2954C84.1372 9.8914 84.5009 9.70875 84.9441 9.7478L85.0319 8.75166C84.1816 8.67674 83.5079 9.06892 83.0339 9.68659C82.5735 10.2866 82.2876 11.1095 82.1403 11.9901L83.1266 12.155ZM83.2343 16.7032C82.8869 15.6335 82.8584 13.7579 83.1266 12.1551L82.1403 11.99C81.8589 13.672 81.8661 15.728 82.2832 17.0121L83.2343 16.7032ZM85.4669 16.8142C85.1108 17.4859 84.6244 17.8064 84.2695 17.8268C83.9938 17.8426 83.5505 17.6764 83.2343 16.7031L82.2833 17.0121C82.6685 18.198 83.402 18.8782 84.3268 18.8251C85.1725 18.7766 85.9102 18.1129 86.3504 17.2825L85.4669 16.8142ZM64.252 27.8878C64.5537 27.6737 64.7818 27.355 64.9574 27.001C65.1349 26.6434 65.274 26.2187 65.3821 25.7551C65.5983 24.828 65.7022 23.6913 65.711 22.4999L64.711 22.4924C64.7025 23.6392 64.602 24.6967 64.4082 25.5281C64.3113 25.9437 64.1942 26.2894 64.0616 26.5566C63.9271 26.8276 63.7915 26.9884 63.6734 27.0721L64.252 27.8878ZM61.0122 25.8894C60.8117 26.9216 61.1948 27.7462 61.9299 28.1316C62.629 28.4981 63.5277 28.4013 64.2519 27.8878L63.6735 27.0721C63.207 27.4029 62.7101 27.4115 62.3942 27.2459C62.1144 27.0992 61.8629 26.754 61.9938 26.08L61.0122 25.8894ZM64.8744 20.6823C63.8541 21.6286 62.9761 22.5065 62.3139 23.3479C61.6532 24.1874 61.1803 25.0238 61.0122 25.8894L61.9938 26.08C62.119 25.4357 62.486 24.7462 63.0998 23.9663C63.7121 23.1883 64.5432 22.3533 65.5544 21.4155L64.8744 20.6823ZM65.711 22.4999C65.7148 21.9899 65.7157 21.6267 65.7155 21.3907C65.7155 21.2727 65.7152 21.1864 65.7149 21.1295C65.7148 21.101 65.7146 21.0798 65.7145 21.0657C65.7145 21.0586 65.7144 21.0533 65.7144 21.0497C65.7144 21.0479 65.7144 21.0465 65.7144 21.0456C65.7144 21.0451 65.7144 21.0447 65.7144 21.0445C65.7143 21.0443 65.7143 21.0442 65.7143 21.0442C65.7143 21.0441 65.7143 21.0441 65.7143 21.0441C65.7143 21.044 65.7143 21.044 65.7143 21.044C65.7143 21.044 65.7143 21.044 65.2144 21.0489C64.7144 21.0539 64.7144 21.0539 64.7144 21.0539C64.7144 21.0539 64.7144 21.0539 64.7144 21.0539C64.7144 21.0539 64.7144 21.0539 64.7144 21.0539C64.7144 21.0539 64.7144 21.0539 64.7144 21.054C64.7144 21.0542 64.7144 21.0544 64.7144 21.0548C64.7144 21.0556 64.7144 21.0567 64.7144 21.0583C64.7145 21.0615 64.7145 21.0664 64.7146 21.0731C64.7146 21.0864 64.7148 21.1067 64.7149 21.1344C64.7152 21.1898 64.7155 21.2746 64.7155 21.3912C64.7157 21.6244 64.7148 21.9848 64.711 22.4924L65.711 22.4999ZM64.3866 13.7232C64.3169 14.9496 63.977 16.1636 63.6321 16.8142L64.5156 17.2825C64.942 16.4781 65.309 15.117 65.385 13.7799L64.3866 13.7232ZM63.1532 9.7499C63.383 9.7499 63.5553 9.80733 63.6942 9.90921C63.8374 10.0143 63.9817 10.1938 64.1045 10.4963C64.3569 11.1179 64.4759 12.1515 64.3866 13.7232L65.385 13.7799C65.4764 12.1714 65.3697 10.9541 65.031 10.12C64.8583 9.69465 64.6157 9.34499 64.2857 9.10291C63.9513 8.85764 63.5641 8.7499 63.1532 8.7499V9.7499ZM61.2896 12.3584C61.434 11.613 61.6748 10.9342 62.0064 10.4549C62.332 9.98438 62.7088 9.7499 63.1532 9.7499V8.7499C62.2798 8.7499 61.6306 9.24052 61.1841 9.88591C60.7437 10.5225 60.4662 11.3504 60.3078 12.1682L61.2896 12.3584ZM61.4003 16.7056C60.9649 15.3411 61.064 13.5236 61.2896 12.3583L60.3078 12.1682C60.0669 13.4126 59.9401 15.4192 60.4477 17.0097L61.4003 16.7056ZM63.6321 16.8142C63.2767 17.4849 62.7875 17.8073 62.4301 17.828C62.1535 17.844 61.7106 17.6784 61.4004 16.7057L60.4477 17.0096C60.827 18.1991 61.5611 18.88 62.488 18.8263C63.3341 18.7773 64.075 18.1139 64.5157 17.2825L63.6321 16.8142ZM52.0519 17.2888C52.5514 16.3783 52.8439 15.1638 52.9247 13.7608L51.9263 13.7034C51.8508 15.0151 51.5799 16.07 51.1752 16.8079L52.0519 17.2888ZM47.989 17.0148C48.3797 18.1946 49.1068 18.8744 50.0291 18.8198C50.8698 18.7701 51.6029 18.1077 52.052 17.2888L51.1751 16.808C50.8062 17.4808 50.3212 17.8008 49.97 17.8216C49.7002 17.8375 49.2614 17.6761 48.9384 16.7005L47.989 17.0148ZM47.8469 11.9473C47.6281 13.1175 47.4342 15.3385 47.989 17.0147L48.9384 16.7005C48.4642 15.268 48.6206 13.2506 48.8299 12.1311L47.8469 11.9473ZM50.7387 8.752C49.9157 8.67635 49.2524 9.05171 48.7766 9.655C48.3139 10.2416 48.0137 11.0549 47.8469 11.9473L48.8299 12.131C48.9806 11.3246 49.2369 10.6861 49.5617 10.2743C49.8734 9.87913 50.2285 9.70931 50.6471 9.7478L50.7387 8.752ZM52.9247 13.7609C53.0077 12.3201 52.8966 11.1449 52.5642 10.2939C52.2232 9.42071 51.6181 8.83276 50.7386 8.75199L50.6472 9.7478C51.0431 9.78416 51.3857 10.0252 51.6328 10.6577C51.8885 11.3125 52.0061 12.3198 51.9263 13.7033L52.9247 13.7609Z" fill="black"/>
</g>
<defs>
<filter id="filter0_d_0_1757" x="0.499695" y="0.5" width="114" height="37" filterUnits="userSpaceOnUse" color-interpolation-filters="sRGB">
<feFlood flood-opacity="0" result="BackgroundImageFix"/>
<feColorMatrix in="SourceAlpha" type="matrix" values="0 0 0 0 0 0 0 0 0 0 0 0 0 0 0 0 0 0 127 0" result="hardAlpha"/>
<feOffset dy="4"/>
<feGaussianBlur stdDeviation="2"/>
<feComposite in2="hardAlpha" operator="out"/>
<feColorMatrix type="matrix" values="0 0 0 0 0 0 0 0 0 0 0 0 0 0 0 0 0 0 0.25 0"/>
<feBlend mode="normal" in2="BackgroundImageFix" result="effect1_dropShadow_0_1757"/>
<feBlend mode="normal" in="SourceGraphic" in2="effect1_dropShadow_0_1757" result="shape"/>
</filter>
</defs>
</svg>
